<svg width="29" height="30" viewBox="0 0 29 30" fill="none" xmlns="http://www.w3.org/2000/svg">
<path fill-rule="evenodd" clip-rule="evenodd" d="M21.8799 5.29541H24.8584V5.30029C25.7983 5.30273 26.6504 5.68359 27.2656 6.30127C27.876 6.91406 28.2568 7.76123 28.2593 8.69873H28.2642V26.5942H28.2593C28.2568 27.5317 27.876 28.3838 27.2583 29.0015C26.6455 29.6118 25.7983 29.9927 24.8608 29.9951V30H9.79004V29.9951C8.85254 29.9927 7.99805 29.6118 7.38281 28.9941C6.77246 28.3813 6.3916 27.5342 6.38916 26.5967H6.38428V22.5854H3.40576V22.5806C2.46826 22.5781 1.61377 22.1973 0.998535 21.5796C0.388184 20.9668 0.00732422 20.1196 0.00488281 19.1821H0V3.40576H0.00488281C0.00732422 2.46582 0.390625 1.61377 1.00586 0.998535C1.61865 0.388184 2.46582 0.00732422 3.40332 0.00488281V0H18.4741V0.00488281C19.4141 0.00732422 20.2661 0.388184 20.8813 1.00586C21.4917 1.61865 21.8726 2.46582 21.875 3.40332H21.8799V5.29541ZM19.2969 5.29541V3.40332H19.3018C19.3018 3.18115 19.2065 2.97607 19.0552 2.82471C18.9063 2.67578 18.6987 2.58057 18.4766 2.58057V2.58545H3.40576V2.58057C3.18359 2.58057 2.97852 2.67578 2.82715 2.82715C2.67822 2.97607 2.58301 3.18359 2.58301 3.40576H2.58789V19.1821H2.58301C2.58301 19.4043 2.67822 19.6094 2.82959 19.7607C2.97852 19.9097 3.18604 20.0049 3.4082 20.0049V20H6.38672V8.70117H6.3916C6.39404 7.76123 6.77734 6.90918 7.39258 6.29395C8.00537 5.68359 8.85254 5.30273 9.79004 5.30029V5.29541H19.2969ZM25.6787 8.69873H25.6836C25.6836 8.47656 25.5884 8.27148 25.437 8.12012C25.2881 7.97119 25.0806 7.87598 24.8584 7.87598V7.88086H9.7876V7.87598C9.56543 7.87598 9.36035 7.97119 9.20898 8.12256C9.06006 8.27148 8.96484 8.479 8.96484 8.70117H8.96973V26.5967H8.96484C8.96484 26.8188 9.06006 27.0239 9.21143 27.1753C9.36035 27.3242 9.56787 27.4194 9.79004 27.4194V27.4146H24.8608V27.4194C25.083 27.4194 25.2881 27.3242 25.4395 27.1729C25.5884 27.0239 25.6836 26.8164 25.6836 26.5942H25.6787V8.69873Z" fill="#4E5766"/>
</svg>
