<svg width="250" height="250" viewBox="0 0 250 250" fill="none" xmlns="http://www.w3.org/2000/svg">
<circle cx="125" cy="125" r="125" fill="white"/>
<path fill-rule="evenodd" clip-rule="evenodd" d="M195.911 154.174C197.929 193.41 215.441 178.273 188.92 187.936C163.309 178.87 184.815 192.053 157.355 148.772C171.566 149.797 165.969 153.155 177.123 144.565C188.486 151.541 174.966 149.98 188.738 148.772L195.911 154.174ZM139.674 56.1453L168.675 82.4609H139.674V56.1453ZM78.9816 116.743C79.286 116.42 79.6557 116.16 80.0677 115.98C80.4798 115.8 80.9255 115.704 81.3774 115.698H140.01C140.475 115.699 140.934 115.797 141.357 115.984C141.78 116.172 142.157 116.444 142.462 116.784C143.087 117.494 143.43 118.396 143.43 119.328C143.43 120.261 143.087 121.163 142.462 121.873C142.252 122.088 142.017 122.28 141.762 122.443C140.641 122.647 139.52 122.81 138.399 122.959H81.4334C80.9679 122.957 80.508 122.86 80.0833 122.676C79.6586 122.491 79.2786 122.222 78.9676 121.887C78.33 121.178 77.9787 120.269 77.9787 119.328C77.9787 118.388 78.33 117.479 78.9676 116.77L78.9816 116.743ZM78.9816 139.449C79.2873 139.108 79.6638 138.835 80.0863 138.645C80.5088 138.456 80.9679 138.355 81.4334 138.349H155.313C155.439 140.833 155.088 143.262 155.313 145.637H81.4334C80.9676 145.637 80.5072 145.541 80.0822 145.356C79.6573 145.172 79.2775 144.902 78.9676 144.565C78.33 143.856 77.9787 142.947 77.9787 142.007C77.9787 141.066 78.33 140.158 78.9676 139.449H78.9816ZM78.9816 162.14C79.2897 161.804 79.667 161.534 80.0892 161.347C80.5114 161.16 80.9692 161.06 81.4334 161.055L150.29 160.702C150.823 163.208 150.174 165.99 150.847 168.343H81.4334C80.9661 168.343 80.5042 168.247 80.0788 168.059C79.6534 167.872 79.2744 167.598 78.9676 167.257C78.3268 166.548 77.9778 165.635 77.9869 164.692C77.9902 163.753 78.3434 162.847 78.9816 162.14ZM78.9816 94.0375C79.2873 93.6974 79.6638 93.4237 80.0863 93.2342C80.5088 93.0448 80.9679 92.9439 81.4334 92.9382H115.058C115.52 92.939 115.976 93.035 116.396 93.2199C116.816 93.4048 117.191 93.6742 117.496 94.0104C118.14 94.7234 118.489 95.6417 118.476 96.589C118.477 97.5261 118.129 98.432 117.496 99.1405C117.189 99.4752 116.814 99.7445 116.395 99.9314C115.975 100.118 115.52 100.219 115.058 100.226H81.4334C80.9679 100.224 80.508 100.128 80.0833 99.943C79.6586 99.7584 79.2786 99.4896 78.9676 99.1541C78.327 98.4392 77.9782 97.5221 77.9869 96.5755C77.9747 95.6217 78.3293 94.6977 78.9816 93.9833V94.0375ZM78.9816 72.9199C79.2873 72.5798 79.6638 72.3061 80.0863 72.1166C80.5088 71.9272 80.9679 71.8263 81.4334 71.8206H99.9269C100.385 71.8233 100.837 71.9189 101.255 72.1012C101.672 72.2835 102.045 72.5486 102.351 72.8792C102.988 73.5884 103.34 74.497 103.34 75.4375C103.34 76.3779 102.988 77.2866 102.351 77.9958C102.045 78.3317 101.67 78.6019 101.251 78.7889C100.831 78.9759 100.375 79.0756 99.9129 79.0815H81.4334C80.9676 79.0811 80.5072 78.9854 80.0822 78.8006C79.6573 78.6159 79.2775 78.3462 78.9676 78.0093C78.33 77.3002 77.9787 76.3915 77.9787 75.4511C77.9787 74.5106 78.33 73.6019 78.9676 72.8928L78.9816 72.9199ZM184.815 86.2338C184.808 85.2207 184.462 84.2372 183.827 83.4318C183.193 82.6263 182.305 82.0426 181.298 81.7687L138.567 41.4199C138.12 40.8794 137.553 40.4437 136.907 40.1452C136.262 39.8468 135.556 39.6933 134.84 39.6963H60.2919C57.9882 39.6963 55.7788 40.5829 54.1498 42.1609C52.5207 43.7389 51.6056 45.8791 51.6056 48.1108V192.053C51.5998 193.16 51.8224 194.258 52.2602 195.281C52.6981 196.304 53.3424 197.232 54.1554 198.011C55.7861 199.582 57.9919 200.465 60.2919 200.467H167.751C165.114 197.533 161.382 194.391 159.282 191.075H61.3007V49.0473H129.951V87.1974C129.955 88.4476 130.47 89.6455 131.384 90.5283C132.298 91.4111 133.536 91.9068 134.826 91.9068H175.12V121.873C178.398 123.882 181.63 120.231 184.815 121.887V86.2338ZM153.516 160.376L161.096 160.281C163.113 160.607 167.26 164.19 168.717 165.71C169.964 163.783 171.253 161.937 172.584 160.145C174.06 158.155 175.573 156.255 177.123 154.445C178.805 152.464 180.556 150.577 182.349 148.772C183.904 147.198 186.706 144.022 188.738 143.262C188.798 143.248 188.86 143.248 188.92 143.262H197.214C197.344 143.262 197.469 143.312 197.561 143.401C197.653 143.49 197.704 143.611 197.704 143.737C197.705 143.801 197.692 143.865 197.665 143.923C197.639 143.982 197.6 144.034 197.55 144.077L195.911 145.8C193.352 148.514 190.914 151.306 188.598 154.174C186.258 157.038 184.03 159.955 181.929 162.901C179.827 165.846 177.852 168.804 175.975 171.831C174.097 174.857 172.304 177.979 170.637 181.114L169.586 183.068C169.524 183.177 169.421 183.259 169.298 183.296C169.176 183.334 169.043 183.325 168.927 183.272C168.833 183.216 168.755 183.136 168.703 183.041L167.751 181.059C166.898 179.259 165.934 177.509 164.864 175.821C163.825 174.17 162.674 172.587 161.418 171.084C160.167 169.587 158.809 168.177 157.355 166.863C155.869 165.529 154.281 164.304 152.605 163.199C152.518 163.14 152.454 163.055 152.421 162.957C152.388 162.859 152.389 162.754 152.423 162.656L153.026 160.702C153.059 160.602 153.125 160.515 153.213 160.454C153.301 160.392 153.408 160.361 153.516 160.363V160.376Z" fill="#333333" stroke="black"/>
<circle cx="182.085" cy="152.14" r="47.1396" fill="#3AAF3C" stroke="white" stroke-width="8"/>
<path d="M173.203 165.035L162.113 153.944L158.336 157.694L173.203 172.561L205.118 140.646L201.368 136.896L173.203 165.035Z" fill="white" stroke="white" stroke-width="3" stroke-linejoin="round"/>
</svg>
