<svg width="250" height="250" viewBox="0 0 250 250" fill="none" xmlns="http://www.w3.org/2000/svg">
<circle cx="125" cy="125" r="125" fill="white"/>
<path fill-rule="evenodd" clip-rule="evenodd" d="M48.0799 63.5137H222.419V160.259H210.097L210.957 89.2721V88.4284C210.957 85.4165 209.761 82.5277 207.633 80.3964C205.505 78.2652 202.618 77.0658 199.606 77.0615H48.048V63.5137H48.0799ZM26.7949 86.4702H201.134V176.959H26.7949V86.4702Z" fill="#333333" stroke="white" stroke-width="2" stroke-linejoin="round"/>
<path d="M174.31 100.497L174.28 99.0273H172.81H56.849H55.3683L55.3491 100.508C55.3081 103.665 54.0166 106.676 51.758 108.882C49.4993 111.087 46.458 112.307 43.3013 112.273L41.7852 112.257V113.773V149.577V151.021L43.228 151.076C46.319 151.193 49.2411 152.516 51.3695 154.76C53.4978 157.005 54.6633 159.993 54.6168 163.086L54.5939 164.609H56.1166H172.014H173.55L173.513 163.073C173.476 161.469 173.759 159.873 174.347 158.379C174.934 156.886 175.815 155.524 176.936 154.376C178.057 153.227 179.396 152.314 180.875 151.69C182.353 151.066 183.942 150.744 185.547 150.742L187.046 150.741V149.242V113.438V111.988L185.596 111.939C182.608 111.839 179.772 110.596 177.673 108.468C175.573 106.339 174.369 103.487 174.31 100.497Z" fill="white" stroke="white" stroke-width="3"/>
<path fill-rule="evenodd" clip-rule="evenodd" d="M90.9193 119.519C93.4003 114.861 97.2069 111.044 101.858 108.549C106.508 106.055 111.794 104.996 117.047 105.506C122.3 106.016 127.283 108.072 131.367 111.414C135.451 114.757 138.453 119.235 139.991 124.283C141.53 129.331 141.537 134.722 140.012 139.775C138.486 144.827 135.497 149.313 131.422 152.666C127.347 156.019 122.369 158.089 117.117 158.613C111.866 159.137 106.577 158.091 101.92 155.609C98.8267 153.963 96.0882 151.724 93.8609 149.019C91.6337 146.313 89.9615 143.196 88.9399 139.844C87.9182 136.492 87.5672 132.972 87.9068 129.485C88.2465 125.997 89.2701 122.611 90.9193 119.519V119.519Z" fill="#333333"/>
<path d="M114.704 151.678C114.377 151.682 114.052 151.621 113.749 151.497C113.445 151.374 113.17 151.191 112.938 150.96C112.707 150.728 112.524 150.453 112.401 150.15C112.277 149.846 112.216 149.522 112.22 149.194V146.774C110.783 146.693 109.361 146.437 107.986 146.01C106.923 145.657 105.891 145.221 104.897 144.705C104.558 144.559 104.254 144.34 104.007 144.066C103.759 143.791 103.574 143.466 103.464 143.113C103.276 142.446 103.309 141.737 103.56 141.091C103.809 140.474 104.28 139.974 104.881 139.69C105.238 139.552 105.621 139.497 106.002 139.53C106.383 139.563 106.751 139.683 107.078 139.881C107.962 140.329 108.884 140.696 109.832 140.98C111.24 141.378 112.7 141.566 114.163 141.537C115.567 141.659 116.974 141.342 118.19 140.629C118.562 140.374 118.865 140.032 119.073 139.632C119.281 139.232 119.388 138.788 119.384 138.337C119.391 137.987 119.32 137.64 119.177 137.321C119.034 137.002 118.822 136.718 118.557 136.49C117.683 135.854 116.666 135.444 115.595 135.296L111.074 134.309C106.075 133.248 103.576 130.594 103.576 126.349C103.555 125.264 103.752 124.187 104.157 123.18C104.562 122.173 105.166 121.259 105.932 120.491C107.644 118.831 109.853 117.78 112.22 117.498V114.919C112.215 114.595 112.274 114.273 112.394 113.972C112.515 113.672 112.694 113.398 112.921 113.167C113.153 112.933 113.432 112.748 113.738 112.625C114.045 112.501 114.374 112.442 114.704 112.451C115.025 112.443 115.344 112.503 115.64 112.627C115.936 112.75 116.203 112.934 116.423 113.167C116.651 113.398 116.83 113.672 116.95 113.972C117.07 114.273 117.129 114.595 117.124 114.919V117.386C118.206 117.529 119.272 117.774 120.308 118.119C121.324 118.449 122.288 118.921 123.173 119.519C123.471 119.691 123.731 119.92 123.939 120.193C124.147 120.467 124.298 120.779 124.383 121.111C124.529 121.726 124.462 122.371 124.192 122.942C124.064 123.224 123.878 123.477 123.649 123.685C123.419 123.893 123.149 124.052 122.855 124.152C122.48 124.261 122.087 124.29 121.701 124.238C121.314 124.186 120.943 124.054 120.61 123.85C119.835 123.469 119.025 123.165 118.19 122.942C117.15 122.679 116.079 122.556 115.006 122.576C113.686 122.496 112.374 122.842 111.265 123.563C110.844 123.84 110.5 124.219 110.264 124.664C110.027 125.109 109.906 125.606 109.912 126.11C109.903 126.455 109.969 126.798 110.107 127.114C110.244 127.431 110.449 127.713 110.708 127.941C111.541 128.551 112.507 128.954 113.526 129.119L118.095 130.106C120.262 130.454 122.278 131.435 123.89 132.924C124.515 133.593 125.001 134.379 125.32 135.237C125.64 136.095 125.787 137.008 125.752 137.923C125.787 138.995 125.595 140.063 125.189 141.056C124.783 142.049 124.172 142.945 123.396 143.686C121.683 145.258 119.536 146.279 117.235 146.615V149.194C117.242 149.518 117.183 149.84 117.063 150.141C116.942 150.442 116.763 150.715 116.535 150.945C116.315 151.181 116.049 151.367 115.752 151.493C115.456 151.62 115.137 151.682 114.815 151.678H114.704Z" fill="white"/>
<circle cx="185.085" cy="152.14" r="47.1396" fill="#3AAF3C" stroke="white" stroke-width="8"/>
<path d="M176.203 165.035L165.113 153.944L161.336 157.694L176.203 172.561L208.118 140.646L204.368 136.896L176.203 165.035Z" fill="white" stroke="white" stroke-width="3" stroke-linejoin="round"/>
</svg>
