<svg width="250" height="250" viewBox="0 0 250 250" fill="none" xmlns="http://www.w3.org/2000/svg">
<circle cx="125" cy="125" r="125" fill="white"/>
<path fill-rule="evenodd" clip-rule="evenodd" d="M48.0799 63.5142H222.419V160.26H210.097L210.957 89.2726V88.4289C210.957 85.417 209.761 82.5282 207.633 80.3969C205.505 78.2657 202.618 77.0663 199.606 77.062H48.048V63.5142H48.0799ZM26.7949 86.4707H201.134V176.96H26.7949V86.4707Z" fill="#333333" stroke="white" stroke-width="2"/>
<path d="M174.31 100.498L174.28 99.0278H172.81H56.849H55.3683L55.3491 100.508C55.3081 103.665 54.0166 106.676 51.758 108.882C49.4993 111.088 46.458 112.307 43.3013 112.273L41.7852 112.257V113.773V149.577V151.021L43.228 151.076C46.319 151.194 49.2411 152.516 51.3695 154.761C53.4978 157.006 54.6633 159.994 54.6168 163.087L54.5939 164.609H56.1166H172.014H173.55L173.513 163.074C173.476 161.469 173.759 159.873 174.347 158.38C174.934 156.886 175.815 155.525 176.936 154.376C178.057 153.227 179.396 152.314 180.875 151.69C182.353 151.066 183.942 150.744 185.547 150.743L187.046 150.742V149.243V113.439V111.989L185.596 111.94C182.608 111.839 179.772 110.597 177.673 108.468C175.573 106.34 174.369 103.487 174.31 100.498Z" fill="white" stroke="white" stroke-width="3"/>
<path fill-rule="evenodd" clip-rule="evenodd" d="M90.9193 119.519C93.4003 114.862 97.2069 111.044 101.858 108.55C106.508 106.055 111.794 104.996 117.047 105.506C122.3 106.016 127.283 108.072 131.367 111.415C135.451 114.757 138.453 119.236 139.991 124.284C141.53 129.332 141.537 134.723 140.012 139.775C138.486 144.827 135.497 149.314 131.422 152.667C127.347 156.02 122.369 158.089 117.117 158.613C111.866 159.137 106.577 158.092 101.92 155.61C98.8267 153.964 96.0882 151.724 93.8609 149.019C91.6337 146.314 89.9615 143.196 88.9398 139.845C87.9182 136.493 87.5672 132.973 87.9068 129.485C88.2465 125.997 89.2701 122.611 90.9193 119.519Z" fill="#333333"/>
<path d="M114.704 151.678C114.377 151.683 114.052 151.621 113.749 151.498C113.445 151.375 113.17 151.192 112.938 150.96C112.707 150.729 112.524 150.453 112.401 150.15C112.277 149.847 112.216 149.522 112.22 149.195V146.775C110.783 146.694 109.361 146.437 107.986 146.011C106.923 145.658 105.891 145.221 104.897 144.705C104.558 144.559 104.254 144.341 104.007 144.066C103.759 143.791 103.574 143.466 103.464 143.113C103.276 142.447 103.309 141.737 103.56 141.092C103.809 140.475 104.28 139.975 104.881 139.691C105.238 139.552 105.621 139.498 106.002 139.531C106.383 139.564 106.751 139.684 107.078 139.882C107.962 140.329 108.884 140.697 109.832 140.98C111.24 141.379 112.7 141.566 114.163 141.537C115.567 141.66 116.974 141.343 118.19 140.63C118.562 140.375 118.865 140.032 119.073 139.632C119.281 139.233 119.388 138.788 119.384 138.337C119.391 137.988 119.32 137.641 119.177 137.321C119.034 137.002 118.822 136.718 118.557 136.491C117.683 135.854 116.666 135.444 115.595 135.297L111.074 134.31C106.075 133.248 103.576 130.595 103.576 126.35C103.555 125.265 103.752 124.187 104.157 123.18C104.562 122.174 105.166 121.259 105.932 120.491C107.644 118.832 109.853 117.781 112.22 117.498V114.919C112.215 114.595 112.274 114.274 112.394 113.973C112.515 113.672 112.694 113.399 112.921 113.168C113.153 112.933 113.432 112.748 113.738 112.625C114.045 112.502 114.374 112.443 114.704 112.452C115.025 112.444 115.344 112.504 115.64 112.627C115.936 112.751 116.203 112.935 116.423 113.168C116.651 113.399 116.83 113.672 116.95 113.973C117.07 114.274 117.129 114.595 117.124 114.919V117.387C118.206 117.529 119.272 117.775 120.308 118.119C121.324 118.45 122.288 118.921 123.173 119.52C123.471 119.691 123.731 119.921 123.939 120.194C124.147 120.467 124.298 120.779 124.383 121.112C124.529 121.726 124.462 122.372 124.192 122.943C124.064 123.225 123.878 123.478 123.649 123.686C123.419 123.894 123.149 124.053 122.855 124.153C122.48 124.261 122.087 124.29 121.701 124.238C121.314 124.186 120.943 124.054 120.61 123.85C119.835 123.469 119.025 123.165 118.19 122.943C117.15 122.68 116.079 122.556 115.006 122.577C113.686 122.496 112.374 122.842 111.265 123.564C110.844 123.841 110.5 124.219 110.264 124.665C110.027 125.11 109.906 125.607 109.912 126.111C109.903 126.456 109.969 126.798 110.107 127.115C110.244 127.431 110.449 127.713 110.708 127.942C111.541 128.551 112.507 128.955 113.526 129.12L118.095 130.107C120.262 130.455 122.278 131.435 123.89 132.925C124.515 133.594 125.001 134.38 125.32 135.238C125.64 136.096 125.787 137.009 125.752 137.923C125.787 138.996 125.595 140.063 125.189 141.056C124.783 142.049 124.172 142.946 123.396 143.686C121.683 145.259 119.536 146.28 117.235 146.616V149.195C117.242 149.519 117.183 149.841 117.063 150.141C116.942 150.442 116.763 150.716 116.535 150.946C116.315 151.181 116.049 151.368 115.752 151.494C115.456 151.62 115.137 151.683 114.815 151.678H114.704Z" fill="white"/>
<circle cx="181.5" cy="152.5" r="47.5" fill="#F4B136" stroke="white" stroke-width="8"/>
<circle cx="181.318" cy="173.704" r="4.31818" fill="white"/>
<rect x="177" y="127" width="8.63636" height="32.3864" rx="2" fill="white"/>
</svg>
