<?xml version="1.0" encoding="utf-8"?>
<!-- Generator: Adobe Illustrator 25.3.1, SVG Export Plug-In . SVG Version: 6.00 Build 0)  -->
<svg version="1.1" id="Layer_1" xmlns="http://www.w3.org/2000/svg" xmlns:xlink="http://www.w3.org/1999/xlink" x="0px" y="0px"
	 viewBox="0 0 793 622" style="enable-background:new 0 0 793 622;" xml:space="preserve">
<style type="text/css">
	.st0{fill:#3CD0CC;fill-opacity:6.000000e-02;}
	.st1{clip-path:url(#SVGID_2_);}
	.st2{fill:#F2F2F2;}
	.st3{fill:#46C779;fill-opacity:0.26;}
	.st4{fill:#FFFFFF;}
	.st5{fill:#3F3D56;}
	.st6{fill:#CCCCCC;}
	.st7{fill:#3CD0CC;}
	.st8{fill:#FFB7B7;}
	.st9{fill:#2F2E41;}
	.st10{fill:#9CD0CF;}
	.st11{fill:#AAAAAA;}
</style>
<path class="st0" d="M423.6,593.3c-72.5,19.5-160,21.4-237.7-6.6c-78-28.3-145.4-86.3-165.8-152.9c-20.4-66,7.3-140.8,27-217.7
	c19.8-76.9,32.8-156.2,86.9-187.1c54.2-30.9,150.2-13.3,238.8-10.9c89,2.1,170.4-11,244.5,9.5c74.1,20.5,140.4,74.3,160.1,137
	c19.3,62.3-8.8,134.1-44.1,191.6c-35.7,57.7-79,101.4-129.5,141.8C553.5,537.8,496,574.4,423.6,593.3z"/>
<g>
	<defs>
		<rect id="SVGID_1_" x="96" y="141" width="592" height="313"/>
	</defs>
	<clipPath id="SVGID_2_">
		<use xlink:href="#SVGID_1_"  style="overflow:visible;"/>
	</clipPath>
	<g class="st1">
		<path class="st2" d="M613.7,415.2c-15.5-0.1-30.9-1.3-46.2-3.4c-0.5-0.1-1.1-0.2-1.6-0.2l0.8-144.8c0.5-0.4,1.1-0.8,1.6-1.2
			c1.8-1.4,3.7-2.6,5.6-3.8c9.3-5.6,20.1-8.1,27.6-5.6l0.1,0c1.6,0.6,3.2,1.4,4.5,2.6c6.6,5.8,5.5,17.7,0.2,28.4
			c10.5-9.6,23.8-17.3,35.7-17.9c11.6-0.6,19.8,5.5,26.9,12c0.2,0.2,0.5,0.4,0.7,0.6c0.1,0.1,0.2,0.2,0.3,0.3
			c5.4,5.1,10.6,11.1,10,19.7c-0.7,9.5-8.6,20-17.9,27.4c-9.2,7.4-19.7,12.3-30,17.2c-10.2,5-20.7,10.3-29.5,18.3
			c13.7-10.8,29.2-19.5,44.3-22.7c15.1-3.2,29.6-0.4,36.7,9.2c2.1,2.9,3.5,6.3,4,9.9c0.1,0.4,0.1,0.8,0.2,1.3
			c1,8.9-2.1,19.5-9.4,28.6c-8.1,10-20.1,16.9-31.5,20.3C635.3,415,624.3,415.4,613.7,415.2z"/>
		<path class="st3" d="M613.7,415.2c-15.5-0.1-30.9-1.3-46.2-3.4c-0.5-0.1-1.1-0.2-1.6-0.2l0.8-144.8c0.5-0.4,1.1-0.8,1.6-1.2
			c1.8-1.4,3.7-2.6,5.6-3.8c9.3-5.6,20.1-8.1,27.6-5.6l0.1,0c1.6,0.6,3.2,1.4,4.5,2.6c6.6,5.8,5.5,17.7,0.2,28.4
			c10.5-9.6,23.8-17.3,35.7-17.9c11.6-0.6,19.8,5.5,26.9,12c0.2,0.2,0.5,0.4,0.7,0.6c0.1,0.1,0.2,0.2,0.3,0.3
			c5.4,5.1,10.6,11.1,10,19.7c-0.7,9.5-8.6,20-17.9,27.4c-9.2,7.4-19.7,12.3-30,17.2c-10.2,5-20.7,10.3-29.5,18.3
			c13.7-10.8,29.2-19.5,44.3-22.7c15.1-3.2,29.6-0.4,36.7,9.2c2.1,2.9,3.5,6.3,4,9.9c0.1,0.4,0.1,0.8,0.2,1.3
			c1,8.9-2.1,19.5-9.4,28.6c-8.1,10-20.1,16.9-31.5,20.3C635.3,415,624.3,415.4,613.7,415.2z"/>
		<path class="st4" d="M566.4,320.5l0-2.8c0.6-0.9,1.1-1.8,1.6-2.6c0.3-0.5,0.7-1.1,1-1.7c5.6-9.2,11-18.4,16.1-27.7
			c5.2-9.3,10.1-18.6,14.7-28c0.1-0.2,0.3-0.5,0.5-0.6c0.2-0.1,0.5-0.2,0.8-0.1c0,0,0.1,0,0.1,0c0.2,0.1,0.3,0.4,0.1,0.9
			c-0.6,1.2-1.2,2.3-1.7,3.5c-4.8,9.4-9.8,18.8-15,28.1c-5.2,9.3-10.7,18.6-16.4,27.8c-0.1,0.2-0.2,0.4-0.4,0.6
			C567.5,318.8,567,319.6,566.4,320.5z"/>
		<path class="st4" d="M566.2,356.2l0-1.7c0.5-0.4,1.1-0.8,1.6-1.2c12.7-9.1,25.4-18.1,38.2-27.2c20.8-14.9,41.6-29.7,62.5-44.5
			c0.1-0.1,0.2-0.2,0.4-0.2c0.5-0.1,0.7,0.2,0.7,0.6c0,0.2-0.1,0.4-0.2,0.5s-0.2,0.3-0.4,0.4c-11.7,8.3-23.3,16.7-35,25
			c-20.7,14.8-41.4,29.5-62.1,44.3c-1.3,0.9-2.6,1.9-4,2.8C567.3,355.4,566.8,355.8,566.2,356.2z"/>
		<path class="st4" d="M576.2,394.4c-2.9-0.1-5.7-0.3-8.5-0.5c-0.5,0-1.1-0.1-1.6-0.1l0-1.8c0.5,0.1,1.1,0.1,1.6,0.2
			c4.1,0.4,8.2,0.6,12.4,0.7c11.7,0,23.4-1.1,34.8-3.4c12.3-2.5,24.5-6,36.2-10.5c12.4-4.8,24.4-10.6,35.8-17.3
			c0.2-0.1,0.4-0.2,0.6-0.2c0.5,0.1,0.7,0.8,0.2,1.3c-0.1,0.1-0.2,0.2-0.3,0.3c-1.4,0.8-2.9,1.6-4.3,2.4
			c-11.5,6.5-23.5,12-35.9,16.5c-11.8,4.3-23.9,7.6-36.3,9.8C599.4,393.8,587.8,394.7,576.2,394.4z"/>
		<path class="st5" d="M561.9,141H168.4c-1.5,0-2.9,0.6-4,1.7s-1.7,2.5-1.7,4v266.7c0,1.5,0.6,2.9,1.7,4s2.5,1.7,4,1.7h393.5
			c0.8,0,1.6-0.2,2.4-0.5c0.7-0.3,1.4-0.8,1.9-1.5c0,0,0.1-0.1,0.1-0.2c0.3-0.4,0.6-0.9,0.8-1.4c0.3-0.7,0.4-1.4,0.4-2.1V146.7
			c0-1.5-0.6-2.9-1.7-4C564.8,141.6,563.4,141,561.9,141z M566,413.4c0,0.8-0.2,1.6-0.7,2.2c-0.4,0.6-0.9,1.1-1.5,1.4
			c-0.6,0.3-1.2,0.4-1.8,0.4H168.4c-1.1,0-2.1-0.4-2.9-1.2c-0.8-0.8-1.2-1.8-1.2-2.9V146.7c0-1.1,0.4-2.1,1.2-2.9
			c0.8-0.8,1.8-1.2,2.9-1.2h393.5c1.1,0,2.1,0.4,2.9,1.2c0.8,0.8,1.2,1.8,1.2,2.9V413.4z"/>
		<path class="st5" d="M566.8,163.7H163.6v1.6h403.2V163.7z"/>
		<path class="st5" d="M177.3,158c2.7,0,4.8-2.2,4.8-4.8c0-2.7-2.2-4.9-4.8-4.9c-2.7,0-4.8,2.2-4.8,4.9
			C172.5,155.8,174.6,158,177.3,158z"/>
		<path class="st5" d="M191.2,158c2.7,0,4.8-2.2,4.8-4.8c0-2.7-2.2-4.9-4.8-4.9c-2.7,0-4.8,2.2-4.8,4.9
			C186.4,155.8,188.6,158,191.2,158z"/>
		<path class="st5" d="M205.2,158c2.7,0,4.8-2.2,4.8-4.8c0-2.7-2.2-4.9-4.8-4.9c-2.7,0-4.8,2.2-4.8,4.9
			C200.3,155.8,202.5,158,205.2,158z"/>
		<path class="st5" d="M466.4,201.1H264.1c-2.2,0-4.4-0.9-6-2.5c-1.6-1.6-2.5-3.7-2.5-6c0-2.2,0.9-4.4,2.5-6c1.6-1.6,3.7-2.5,6-2.5
			h202.3c2.2,0,4.4,0.9,6,2.5c1.6,1.6,2.5,3.7,2.5,6c0,2.2-0.9,4.4-2.5,6C470.7,200.2,468.6,201.1,466.4,201.1z M264.1,185.5
			c-1.9,0-3.7,0.8-5,2.1c-1.3,1.3-2.1,3.2-2.1,5s0.8,3.7,2.1,5c1.3,1.3,3.2,2.1,5,2.1h202.3c1.9,0,3.7-0.8,5-2.1
			c1.3-1.3,2.1-3.2,2.1-5s-0.8-3.7-2.1-5c-1.3-1.3-3.2-2.1-5-2.1H264.1z"/>
		<path class="st6" d="M265.8,252.6h-18.2c-1.4,0-2.7-0.5-3.7-1.5c-1-1-1.5-2.3-1.5-3.7c0-1.4,0.5-2.7,1.5-3.7c1-1,2.3-1.5,3.7-1.5
			h18.2c1.4,0,2.7,0.5,3.7,1.5c1,1,1.5,2.3,1.5,3.7c0,1.4-0.5,2.7-1.5,3.7C268.5,252.1,267.2,252.6,265.8,252.6z"/>
		<path class="st6" d="M287.2,270.2h-39.5c-1.4,0-2.7-0.5-3.7-1.5c-1-1-1.5-2.3-1.5-3.7c0-1.4,0.5-2.7,1.5-3.7c1-1,2.3-1.5,3.7-1.5
			h39.5c1.4,0,2.7,0.5,3.7,1.5c1,1,1.5,2.3,1.5,3.7c0,1.4-0.5,2.7-1.5,3.7C289.9,269.6,288.6,270.2,287.2,270.2z"/>
		<path class="st6" d="M269,329.2h-18.2c-1.4,0-2.7-0.5-3.7-1.5c-1-1-1.5-2.3-1.5-3.7c0-1.4,0.5-2.7,1.5-3.7c1-1,2.3-1.5,3.7-1.5
			H269c1.4,0,2.7,0.5,3.7,1.5c1,1,1.5,2.3,1.5,3.7c0,1.4-0.5,2.7-1.5,3.7C271.7,328.6,270.4,329.2,269,329.2z"/>
		<path class="st6" d="M290.4,346.7h-39.5c-1.4,0-2.7-0.5-3.7-1.5c-1-1-1.5-2.3-1.5-3.7s0.5-2.7,1.5-3.7c1-1,2.3-1.5,3.7-1.5h39.5
			c1.4,0,2.7,0.5,3.7,1.5c1,1,1.5,2.3,1.5,3.7s-0.5,2.7-1.5,3.7C293.1,346.1,291.8,346.7,290.4,346.7z"/>
		<path class="st6" d="M388.3,327.2h-18.2c-1.4,0-2.7-0.5-3.7-1.5c-1-1-1.5-2.3-1.5-3.7c0-1.4,0.5-2.7,1.5-3.7c1-1,2.3-1.5,3.7-1.5
			h18.2c1.4,0,2.7,0.5,3.7,1.5c1,1,1.5,2.3,1.5,3.7c0,1.4-0.5,2.7-1.5,3.7C391,326.7,389.7,327.2,388.3,327.2z"/>
		<path class="st6" d="M409.7,344.7h-39.5c-1.4,0-2.7-0.5-3.7-1.5c-1-1-1.5-2.3-1.5-3.7c0-1.4,0.5-2.7,1.5-3.7c1-1,2.3-1.5,3.7-1.5
			h39.5c1.4,0,2.7,0.5,3.7,1.5c1,1,1.5,2.3,1.5,3.7c0,1.4-0.5,2.7-1.5,3.7C412.4,344.2,411.1,344.7,409.7,344.7z"/>
		<path class="st6" d="M386.4,255.9h-18.2c-1.4,0-2.7-0.5-3.7-1.5c-1-1-1.5-2.3-1.5-3.7s0.5-2.7,1.5-3.7c1-1,2.3-1.5,3.7-1.5h18.2
			c1.4,0,2.7,0.5,3.7,1.5c1,1,1.5,2.3,1.5,3.7s-0.5,2.7-1.5,3.7C389.1,255.3,387.7,255.9,386.4,255.9z"/>
		<path class="st6" d="M407.8,273.4h-39.5c-1.4,0-2.7-0.5-3.7-1.5c-1-1-1.5-2.3-1.5-3.7c0-1.4,0.5-2.7,1.5-3.7c1-1,2.3-1.5,3.7-1.5
			h39.5c1.4,0,2.7,0.5,3.7,1.5c1,1,1.5,2.3,1.5,3.7c0,1.4-0.5,2.7-1.5,3.7C410.4,272.8,409.1,273.4,407.8,273.4z"/>
		<path class="st6" d="M507.6,252h-18.2c-1.4,0-2.7-0.5-3.7-1.5s-1.5-2.3-1.5-3.7s0.5-2.7,1.5-3.7s2.3-1.5,3.7-1.5h18.2
			c1.4,0,2.7,0.5,3.7,1.5c1,1,1.5,2.3,1.5,3.7s-0.5,2.7-1.5,3.7C510.3,251.4,509,252,507.6,252z"/>
		<path class="st6" d="M529,269.5h-39.5c-1.4,0-2.7-0.5-3.7-1.5s-1.5-2.3-1.5-3.7s0.5-2.7,1.5-3.7c1-1,2.3-1.5,3.7-1.5H529
			c1.4,0,2.7,0.5,3.7,1.5c1,1,1.5,2.3,1.5,3.7s-0.5,2.7-1.5,3.7S530.4,269.5,529,269.5z"/>
		<path class="st7" d="M335.5,276.6c10.7,0,19.4-8.7,19.4-19.5c0-10.7-8.7-19.5-19.4-19.5c-10.7,0-19.4,8.7-19.4,19.5
			C316,267.9,324.7,276.6,335.5,276.6z"/>
		<path class="st4" d="M344.5,265.9h-18.2c-0.5,0-1-0.2-1.4-0.6c-0.4-0.4-0.6-0.9-0.6-1.4v-13.6c0-0.5,0.2-1,0.6-1.4
			c0.4-0.4,0.9-0.6,1.4-0.6h5.1c0.3,0,0.7,0.1,0.9,0.2c0.3,0.2,0.5,0.4,0.7,0.7l1.4,2.3h10c0.5,0,1,0.2,1.4,0.6
			c0.4,0.4,0.6,0.9,0.6,1.4v10.4c0,0.5-0.2,1-0.6,1.4C345.6,265.7,345.1,265.9,344.5,265.9z M326.4,249.7c-0.2,0-0.3,0.1-0.5,0.2
			c-0.1,0.1-0.2,0.3-0.2,0.5v13.6c0,0.2,0.1,0.3,0.2,0.5c0.1,0.1,0.3,0.2,0.5,0.2h18.2c0.2,0,0.3-0.1,0.5-0.2
			c0.1-0.1,0.2-0.3,0.2-0.5v-10.4c0-0.2-0.1-0.3-0.2-0.5c-0.1-0.1-0.3-0.2-0.5-0.2h-10.7l-1.8-2.9c-0.1-0.1-0.1-0.2-0.2-0.2
			c-0.1-0.1-0.2-0.1-0.3-0.1H326.4z"/>
		<path class="st7" d="M212.8,276.6c10.7,0,19.4-8.7,19.4-19.5c0-10.7-8.7-19.5-19.4-19.5c-10.7,0-19.4,8.7-19.4,19.5
			C193.3,267.9,202.1,276.6,212.8,276.6z"/>
		<path class="st4" d="M221.2,269.5h-16.9c-0.5,0-1-0.2-1.4-0.6c-0.4-0.4-0.6-0.9-0.6-1.4v-20.8c0-0.5,0.2-1,0.6-1.4
			c0.4-0.4,0.9-0.6,1.4-0.6h12.2c0.4,0,0.9,0.2,1.2,0.4l4.6,3.7c0.2,0.2,0.4,0.4,0.5,0.7c0.1,0.3,0.2,0.5,0.2,0.8v17
			c0,0.5-0.2,1-0.6,1.4C222.2,269.2,221.7,269.5,221.2,269.5z M204.4,246.1c-0.2,0-0.3,0.1-0.5,0.2c-0.1,0.1-0.2,0.3-0.2,0.5v20.8
			c0,0.2,0.1,0.3,0.2,0.5c0.1,0.1,0.3,0.2,0.5,0.2h16.9c0.2,0,0.3-0.1,0.5-0.2c0.1-0.1,0.2-0.3,0.2-0.5v-17c0-0.1,0-0.2-0.1-0.3
			c0-0.1-0.1-0.2-0.2-0.2l-4.6-3.7c-0.1-0.1-0.3-0.1-0.4-0.1H204.4z"/>
		<path class="st4" d="M218,253.9h-10.4c-0.2,0-0.3-0.1-0.5-0.2c-0.1-0.1-0.2-0.3-0.2-0.5s0.1-0.3,0.2-0.5c0.1-0.1,0.3-0.2,0.5-0.2
			H218c0.2,0,0.3,0.1,0.5,0.2c0.1,0.1,0.2,0.3,0.2,0.5s-0.1,0.3-0.2,0.5C218.3,253.8,218.2,253.9,218,253.9z"/>
		<path class="st4" d="M218,257.8h-10.4c-0.2,0-0.3-0.1-0.5-0.2c-0.1-0.1-0.2-0.3-0.2-0.5s0.1-0.3,0.2-0.5c0.1-0.1,0.3-0.2,0.5-0.2
			H218c0.2,0,0.3,0.1,0.5,0.2c0.1,0.1,0.2,0.3,0.2,0.5s-0.1,0.3-0.2,0.5C218.3,257.7,218.2,257.8,218,257.8z"/>
		<path class="st4" d="M218,261.7h-10.4c-0.2,0-0.3-0.1-0.5-0.2c-0.1-0.1-0.2-0.3-0.2-0.5s0.1-0.3,0.2-0.5c0.1-0.1,0.3-0.2,0.5-0.2
			H218c0.2,0,0.3,0.1,0.5,0.2c0.1,0.1,0.2,0.3,0.2,0.5s-0.1,0.3-0.2,0.5C218.3,261.6,218.2,261.7,218,261.7z"/>
		<path class="st7" d="M454.8,275c10.7,0,19.4-8.7,19.4-19.5c0-10.7-8.7-19.5-19.4-19.5c-10.7,0-19.4,8.7-19.4,19.5
			C435.4,266.3,444.1,275,454.8,275z"/>
		<path class="st4" d="M463.9,262.7h-18.2c-0.5,0-1-0.2-1.4-0.6c-0.4-0.4-0.6-0.9-0.6-1.4v-10.4c0-0.5,0.2-1,0.6-1.4
			c0.4-0.4,0.9-0.6,1.4-0.6h18.2c0.5,0,1,0.2,1.4,0.6c0.4,0.4,0.6,0.9,0.6,1.4v10.4c0,0.5-0.2,1-0.6,1.4
			C464.9,262.5,464.4,262.7,463.9,262.7z M445.7,249.7c-0.2,0-0.3,0.1-0.5,0.2c-0.1,0.1-0.2,0.3-0.2,0.5v10.4c0,0.2,0.1,0.3,0.2,0.5
			c0.1,0.1,0.3,0.2,0.5,0.2h18.2c0.2,0,0.3-0.1,0.5-0.2c0.1-0.1,0.2-0.3,0.2-0.5v-10.4c0-0.2-0.1-0.3-0.2-0.5
			c-0.1-0.1-0.3-0.2-0.5-0.2H445.7z"/>
		<path class="st4" d="M454.8,257.3c-0.4,0-0.7-0.1-1-0.3l-9.7-6.1c-0.1-0.1-0.2-0.2-0.3-0.4c0-0.2,0-0.3,0.1-0.5
			c0.1-0.1,0.2-0.2,0.4-0.3c0.2,0,0.3,0,0.5,0.1l9.7,6.1c0.1,0.1,0.2,0.1,0.3,0.1c0.1,0,0.2,0,0.3-0.1l9.7-6.1
			c0.1-0.1,0.3-0.1,0.5-0.1c0.2,0,0.3,0.1,0.4,0.3c0.1,0.1,0.1,0.3,0.1,0.5c0,0.2-0.1,0.3-0.3,0.4l-9.7,6.1
			C455.5,257.2,455.2,257.3,454.8,257.3z"/>
		<path class="st7" d="M215.6,352.2c10.7,0,19.4-8.7,19.4-19.5c0-10.7-8.7-19.5-19.4-19.5s-19.4,8.7-19.4,19.5
			C196.2,343.5,204.9,352.2,215.6,352.2z"/>
		<path class="st4" d="M224.7,339.9h-18.2c-0.5,0-1-0.2-1.4-0.6c-0.4-0.4-0.6-0.9-0.6-1.4v-10.4c0-0.5,0.2-1,0.6-1.4
			c0.4-0.4,0.9-0.6,1.4-0.6h18.2c0.5,0,1,0.2,1.4,0.6c0.4,0.4,0.6,0.9,0.6,1.4v10.4c0,0.5-0.2,1-0.6,1.4
			C225.7,339.7,225.2,339.9,224.7,339.9z M206.5,326.9c-0.2,0-0.3,0.1-0.5,0.2c-0.1,0.1-0.2,0.3-0.2,0.5v10.4c0,0.2,0.1,0.3,0.2,0.5
			c0.1,0.1,0.3,0.2,0.5,0.2h18.2c0.2,0,0.3-0.1,0.5-0.2c0.1-0.1,0.2-0.3,0.2-0.5v-10.4c0-0.2-0.1-0.3-0.2-0.5
			c-0.1-0.1-0.3-0.2-0.5-0.2H206.5z"/>
		<path class="st4" d="M221.8,339.9h-13c-0.2,0-0.5-0.1-0.6-0.2c-0.2-0.1-0.4-0.3-0.5-0.5c-0.1-0.2-0.2-0.4-0.2-0.6
			c0-0.2,0.1-0.5,0.2-0.6l3.9-6.8c0.1-0.2,0.3-0.4,0.5-0.5c0.2-0.1,0.4-0.2,0.6-0.2c0.2,0,0.5,0.1,0.6,0.2c0.2,0.1,0.4,0.3,0.5,0.5
			l2.5,4.4l1.5-2.5c0.1-0.2,0.3-0.4,0.5-0.5c0.2-0.1,0.4-0.2,0.6-0.2c0.2,0,0.5,0.1,0.6,0.2c0.2,0.1,0.4,0.3,0.5,0.5l2.9,5
			c0.1,0.2,0.2,0.4,0.2,0.6c0,0.2-0.1,0.5-0.2,0.6c-0.1,0.2-0.3,0.4-0.5,0.5C222.3,339.8,222,339.9,221.8,339.9L221.8,339.9z
			 M221.8,338.6l-2.9-5l-2,3.5c-0.1,0.1-0.1,0.2-0.2,0.2c-0.1,0.1-0.2,0.1-0.3,0.1c-0.1,0-0.2,0-0.3-0.1c-0.1-0.1-0.2-0.1-0.2-0.2
			l-3.1-5.4l-3.9,6.8H221.8z"/>
		<path class="st4" d="M222.7,330.8c0.7,0,1.3-0.6,1.3-1.3c0-0.7-0.6-1.3-1.3-1.3s-1.3,0.6-1.3,1.3
			C221.4,330.2,222,330.8,222.7,330.8z"/>
		<path class="st7" d="M336.2,350.2c10.7,0,19.4-8.7,19.4-19.5s-8.7-19.5-19.4-19.5s-19.4,8.7-19.4,19.5S325.4,350.2,336.2,350.2z"
			/>
		<path class="st4" d="M336.2,331.1c-1.2,0-2.3-0.3-3.2-1c-1-0.6-1.7-1.6-2.1-2.6c-0.4-1.1-0.6-2.2-0.3-3.4c0.2-1.1,0.8-2.2,1.6-3
			c0.8-0.8,1.9-1.4,3-1.6c1.1-0.2,2.3-0.1,3.4,0.3c1.1,0.4,2,1.2,2.6,2.1c0.6,1,1,2.1,1,3.2c0,1.5-0.6,3-1.7,4.1
			C339.2,330.5,337.7,331.1,336.2,331.1z M336.2,320.7c-0.9,0-1.8,0.3-2.5,0.8c-0.7,0.5-1.3,1.2-1.7,2c-0.3,0.8-0.4,1.7-0.3,2.6
			c0.2,0.9,0.6,1.7,1.2,2.3c0.6,0.6,1.4,1.1,2.3,1.2c0.9,0.2,1.8,0.1,2.6-0.3c0.8-0.3,1.5-0.9,2-1.7c0.5-0.7,0.8-1.6,0.8-2.5
			c0-1.2-0.5-2.4-1.3-3.2C338.5,321.2,337.4,320.7,336.2,320.7z"/>
		<path class="st4" d="M341.4,342.1H331c-0.6,0-1.2-0.2-1.6-0.7c-0.4-0.4-0.7-1-0.7-1.6c0-2,0.8-3.9,2.2-5.3
			c1.4-1.4,3.3-2.2,5.3-2.2c2,0,3.9,0.8,5.3,2.2c1.4,1.4,2.2,3.3,2.2,5.3c0,0.6-0.2,1.2-0.7,1.6C342.5,341.9,342,342.1,341.4,342.1z
			 M336.2,333.7c-1.6,0-3.2,0.7-4.4,1.8c-1.2,1.2-1.8,2.7-1.8,4.4c0,0.3,0.1,0.5,0.3,0.7c0.2,0.2,0.4,0.3,0.7,0.3h10.4
			c0.3,0,0.5-0.1,0.7-0.3c0.2-0.2,0.3-0.4,0.3-0.7c0-1.6-0.7-3.2-1.8-4.4C339.4,334.4,337.8,333.7,336.2,333.7z"/>
		<path class="st8" d="M213.1,272.2c-0.8-0.2-1.6-0.2-2.3,0c-0.8,0.2-1.5,0.5-2.1,1c-0.6,0.5-1.2,1.1-1.5,1.8
			c-0.4,0.7-0.6,1.5-0.6,2.3l-18.4,5.4l7.5,6.8l16.3-6.2c1.3,0,2.6-0.5,3.6-1.5c1-0.9,1.6-2.2,1.8-3.6c0.1-1.4-0.2-2.8-1-3.9
			C215.5,273.3,214.3,272.5,213.1,272.2L213.1,272.2z"/>
		<path class="st8" d="M165.4,431.5h5.3l2.5-20.8l-7.8,0L165.4,431.5z"/>
		<path class="st9" d="M164.1,436.7h17.5v-0.2c0-1.8-0.7-3.6-2-4.9c-1.3-1.3-3-2-4.8-2h0h-10.7L164.1,436.7z"/>
		<path class="st8" d="M133,431.5h5.7l2.7-20.8l-8.4,0V431.5z"/>
		<path class="st9" d="M131.7,436.7h17.5v-0.2c0-1.8-0.7-3.6-2-4.9c-1.3-1.3-3-2-4.8-2h0h-10.7L131.7,436.7z"/>
		<path class="st9" d="M169.7,311.2l8,55.6l-2,58.6l-12,1l-3.8-52.6l-9.6-29.3l-5.6,41.8l-0.2,39.1l-12.4,1l-4.3-82.3l3.2-35.8
			L169.7,311.2z"/>
		<path class="st8" d="M146.2,236.3c-7,0-12.6-5.7-12.6-12.6s5.7-12.6,12.6-12.6c7,0,12.6,5.7,12.6,12.6S153.2,236.3,146.2,236.3z"
			/>
		<path class="st10" d="M154.1,243.3l13.8,70.9c0,0-23.3,6.8-33.5,0.5c-10.2-6.3-5.6-25.7-5.6-25.7l1.9-33l3.5-8.3l2.9-6.9
			L154.1,243.3z"/>
		<path class="st9" d="M158.5,293.8l-4.9-51.6l3.9,2.8l13.6,4.4l0.9,36.3l9.5,47.8c0,0-6.8,13.2-15.2-8.7L158.5,293.8z"/>
		<path class="st9" d="M164.3,254.7l6.6-5.4l14.8,31.9l16.5-3.6l0.8,9.7l-23.9,9.4l-16.3-22.5L164.3,254.7z"/>
		<path class="st9" d="M138.8,282.2l-1.8-42l-6.7,5.2l-12,3.4l1.8,33.5l-2.5,51.9l12.6,4l3.5-32.8L138.8,282.2z"/>
		<path class="st8" d="M138,316c-0.1-0.8-0.5-1.5-0.9-2.2c-0.5-0.7-1.1-1.2-1.8-1.6c-0.7-0.4-1.5-0.6-2.3-0.7
			c-0.8-0.1-1.6,0-2.3,0.3l-12.3-15.2l-3,9.7l12.2,12.9c0.5,1.2,1.5,2.2,2.8,2.8s2.6,0.6,3.9,0.2c1.3-0.4,2.4-1.3,3.1-2.4
			C138,318.7,138.3,317.4,138,316L138,316z"/>
		<path class="st9" d="M126.3,253.3l-8.1-4.7l-20.3,40l19.8,27.4l11.3-9l-13.7-17.8l12.5-19.2L126.3,253.3z"/>
		<path class="st9" d="M134.2,213.5l-0.6-1.2l3.1-1.5c0,0,3.5-5.5,9.7-4c6.3,1.6,9.1,2.5,9.1,2.5l3.1,1.5l-1.6,1.5l2.8,0.9l-1.9,0.9
			l2.2,1.2l-1.2,6.3c0,0-2-4.8-5.7-3c-3.8,1.8-10.6-0.9-10.6-0.9l-6,11.4c0,0-1.2-4-3.4-2.9C133.2,226.3,127.6,217.5,134.2,213.5z"
			/>
		<path class="st11" d="M92.6,438h130c0.1,0,0.3-0.1,0.4-0.2c0.1-0.1,0.1-0.3,0.1-0.5s-0.1-0.3-0.1-0.5c-0.1-0.1-0.2-0.2-0.4-0.2
			h-130c-0.1,0-0.3,0.1-0.3,0.2c-0.1,0.1-0.1,0.3-0.1,0.5s0.1,0.3,0.1,0.5C92.3,437.9,92.5,438,92.6,438z"/>
	</g>
</g>
</svg>
