<svg width="748" height="395" viewBox="0 0 748 395" fill="none" xmlns="http://www.w3.org/2000/svg">
<g clip-path="url(#clip0)">
<path d="M654.154 346.091C634.625 345.92 615.128 344.49 595.784 341.812C595.105 341.718 594.425 341.616 593.746 341.522L594.768 158.794C595.443 158.257 596.125 157.729 596.816 157.217C599.103 155.511 601.455 153.913 603.887 152.445C615.607 145.39 629.329 142.16 638.796 145.397L638.943 145.455C641.016 146.153 642.93 147.254 644.576 148.694C652.89 156.073 651.504 170.994 644.794 184.533C658.098 172.389 674.887 162.719 689.872 161.984C704.489 161.264 714.93 168.901 723.804 177.183C724.097 177.455 724.383 177.727 724.668 177.999C724.814 178.13 724.953 178.27 725.1 178.402C731.862 184.864 738.528 192.398 737.722 203.303C736.836 215.263 726.81 228.523 715.127 237.82C703.452 247.118 690.189 253.296 677.245 259.558C664.309 265.829 651.042 272.613 639.986 282.675C657.238 269.046 676.868 258.058 695.959 253.999C715.051 249.94 733.387 253.513 742.378 265.659C745.023 269.346 746.747 273.613 747.403 278.102C747.49 278.626 747.561 279.159 747.624 279.699C748.904 290.943 745.012 304.368 735.709 315.79C725.465 328.369 710.279 337.09 695.864 341.429C681.448 345.768 667.57 346.231 654.154 346.091Z" fill="#F2F2F2"/>
<path d="M654.154 346.091C634.625 345.92 615.128 344.49 595.784 341.812C595.105 341.718 594.425 341.616 593.746 341.522L594.768 158.794C595.443 158.257 596.125 157.729 596.816 157.217C599.103 155.511 601.455 153.913 603.887 152.445C615.607 145.39 629.329 142.16 638.796 145.397L638.943 145.455C641.016 146.153 642.93 147.254 644.576 148.694C652.89 156.073 651.504 170.994 644.794 184.533C658.098 172.389 674.887 162.719 689.872 161.984C704.489 161.264 714.93 168.901 723.804 177.183C724.097 177.455 724.383 177.727 724.668 177.999C724.814 178.13 724.953 178.27 725.1 178.402C731.862 184.864 738.528 192.398 737.722 203.303C736.836 215.263 726.81 228.523 715.127 237.82C703.452 247.118 690.189 253.296 677.245 259.558C664.309 265.829 651.042 272.613 639.986 282.675C657.238 269.046 676.868 258.058 695.959 253.999C715.051 249.94 733.387 253.513 742.378 265.659C745.023 269.346 746.747 273.613 747.403 278.102C747.49 278.626 747.561 279.159 747.624 279.699C748.904 290.943 745.012 304.368 735.709 315.79C725.465 328.369 710.279 337.09 695.864 341.429C681.448 345.768 667.57 346.231 654.154 346.091Z" fill="#F2F2F2"/>
<path d="M594.389 226.539L594.409 223.045C595.103 221.936 595.789 220.821 596.467 219.701C596.905 219.008 597.327 218.306 597.756 217.605C604.841 206.015 611.636 194.352 618.143 182.617C624.655 170.893 630.867 159.11 636.778 147.268C636.915 146.954 637.158 146.698 637.464 146.544C637.77 146.39 638.12 146.348 638.454 146.426C638.498 146.438 638.539 146.458 638.577 146.484C638.887 146.649 639.016 147.018 638.751 147.557C638.022 149.01 637.293 150.471 636.548 151.923C630.535 163.797 624.222 175.621 617.608 187.394C610.998 199.158 604.096 210.855 596.902 222.486C596.753 222.73 596.596 222.975 596.447 223.22C595.761 224.329 595.075 225.43 594.389 226.539Z" fill="white"/>
<path d="M594.137 271.591L594.149 269.431C594.832 268.943 595.514 268.465 596.197 267.977C612.266 256.528 628.335 245.081 644.405 233.636C670.712 214.894 697.02 196.157 723.328 177.427C723.469 177.315 723.631 177.233 723.804 177.183C724.387 177.023 724.728 177.451 724.668 177.999C724.635 178.23 724.553 178.451 724.427 178.648C724.302 178.845 724.136 179.013 723.941 179.14C709.187 189.648 694.439 200.153 679.697 210.656C653.521 229.3 627.347 247.942 601.177 266.581C599.515 267.767 597.846 268.952 596.185 270.138C595.502 270.625 594.82 271.113 594.137 271.591Z" fill="white"/>
<path d="M606.695 319.727C603.051 319.616 599.465 319.375 595.912 319.061C595.232 319 594.553 318.939 593.873 318.877L593.886 316.61C594.565 316.68 595.245 316.749 595.924 316.81C601.057 317.289 606.248 317.629 611.58 317.675C626.363 317.735 641.114 316.296 655.606 313.379C671.21 310.278 686.514 305.826 701.345 300.073C716.988 294.035 732.121 286.755 746.6 278.303C746.836 278.143 747.12 278.072 747.403 278.102C748.05 278.196 748.242 279.056 747.624 279.699C747.503 279.826 747.364 279.936 747.212 280.024C745.413 281.07 743.608 282.097 741.797 283.104C727.238 291.245 712.052 298.212 696.385 303.941C681.505 309.398 666.178 313.548 650.577 316.346C636.104 318.966 621.4 320.099 606.695 319.727Z" fill="white"/>
<path d="M588.679 9.30203e-09H91.4947C89.601 0.00172066 87.7853 0.754148 86.4463 2.09212C85.1072 3.43009 84.3542 5.24426 84.3525 7.13641V343.759C84.3542 345.651 85.1072 347.465 86.4463 348.803C87.7853 350.141 89.601 350.893 91.4947 350.895H588.679C589.712 350.895 590.732 350.671 591.67 350.239C592.608 349.807 593.44 349.176 594.11 348.391C594.167 348.329 594.219 348.264 594.266 348.194C594.692 347.674 595.037 347.091 595.29 346.467C595.649 345.61 595.833 344.689 595.83 343.759V7.13646C595.828 5.24298 595.074 3.42775 593.733 2.08962C592.392 0.751487 590.574 -9.65455e-05 588.679 9.30203e-09ZM593.791 343.759C593.791 344.754 593.498 345.728 592.947 346.558C592.457 347.288 591.793 347.884 591.014 348.293C590.292 348.665 589.492 348.859 588.679 348.857H91.4947C90.1419 348.856 88.8449 348.318 87.8883 347.362C86.9316 346.406 86.3935 345.11 86.3918 343.759V7.13646C86.3935 5.78472 86.9316 4.48881 87.8882 3.53299C88.8449 2.57716 90.1419 2.03946 91.4947 2.03782H588.679C590.034 2.03765 591.332 2.5745 592.291 3.53048C593.249 4.48646 593.789 5.78339 593.791 7.13646V343.759Z" fill="#3F3D56"/>
<path d="M594.806 28.6025H85.3704V30.6426H594.806V28.6025Z" fill="#3F3D56"/>
<path d="M102.726 21.4213C106.109 21.4213 108.851 18.6811 108.851 15.301C108.851 11.9208 106.109 9.18066 102.726 9.18066C99.3428 9.18066 96.6003 11.9208 96.6003 15.301C96.6003 18.6811 99.3428 21.4213 102.726 21.4213Z" fill="#3F3D56"/>
<path d="M120.337 21.4213C123.72 21.4213 126.462 18.6811 126.462 15.301C126.462 11.9208 123.72 9.18066 120.337 9.18066C116.954 9.18066 114.211 11.9208 114.211 15.301C114.211 18.6811 116.954 21.4213 120.337 21.4213Z" fill="#3F3D56"/>
<path d="M137.947 21.4213C141.33 21.4213 144.073 18.6811 144.073 15.301C144.073 11.9208 141.33 9.18066 137.947 9.18066C134.564 9.18066 131.822 11.9208 131.822 15.301C131.822 18.6811 134.564 21.4213 137.947 21.4213Z" fill="#3F3D56"/>
<path d="M467.946 75.8261H212.391C209.567 75.8261 206.859 74.7052 204.862 72.71C202.865 70.7148 201.743 68.0087 201.743 65.187C201.743 62.3653 202.865 59.6592 204.862 57.664C206.859 55.6688 209.567 54.5479 212.391 54.5479H467.946C470.77 54.5479 473.478 55.6688 475.475 57.664C477.472 59.6592 478.594 62.3653 478.594 65.187C478.594 68.0087 477.472 70.7148 475.475 72.71C473.478 74.7052 470.77 75.8261 467.946 75.8261ZM212.391 56.1846C210.002 56.1846 207.71 57.1331 206.02 58.8214C204.331 60.5096 203.381 62.7994 203.381 65.187C203.381 67.5746 204.331 69.8644 206.02 71.5526C207.71 73.2409 210.002 74.1893 212.391 74.1893H467.946C470.335 74.1893 472.627 73.2409 474.317 71.5526C476.007 69.8644 476.956 67.5746 476.956 65.187C476.956 62.7994 476.007 60.5096 474.317 58.8214C472.627 57.1331 470.335 56.1846 467.946 56.1846H212.391Z" fill="#3F3D56"/>
<path d="M214.526 140.888H191.592C189.854 140.888 188.187 140.198 186.958 138.971C185.729 137.743 185.039 136.078 185.039 134.341C185.039 132.605 185.729 130.939 186.958 129.712C188.187 128.484 189.854 127.794 191.592 127.794H214.526C216.264 127.794 217.931 128.484 219.16 129.712C220.388 130.939 221.079 132.605 221.079 134.341C221.079 136.078 220.388 137.743 219.16 138.971C217.931 140.198 216.264 140.888 214.526 140.888Z" fill="#CCCCCC"/>
<path d="M241.556 162.985H191.592C189.854 162.985 188.187 162.295 186.958 161.067C185.729 159.839 185.039 158.174 185.039 156.438C185.039 154.701 185.729 153.036 186.958 151.808C188.187 150.58 189.854 149.891 191.592 149.891H241.556C243.294 149.891 244.96 150.58 246.189 151.808C247.418 153.036 248.109 154.701 248.109 156.438C248.109 158.174 247.418 159.839 246.189 161.067C244.96 162.295 243.294 162.985 241.556 162.985Z" fill="#CCCCCC"/>
<path d="M218.622 237.459H195.687C193.949 237.459 192.283 236.769 191.054 235.541C189.825 234.313 189.135 232.648 189.135 230.911C189.135 229.175 189.825 227.51 191.054 226.282C192.283 225.054 193.949 224.364 195.687 224.364H218.622C220.359 224.364 222.026 225.054 223.255 226.282C224.484 227.51 225.174 229.175 225.174 230.911C225.174 232.648 224.484 234.313 223.255 235.541C222.026 236.769 220.359 237.459 218.622 237.459Z" fill="#CCCCCC"/>
<path d="M245.651 259.555H195.687C193.949 259.555 192.283 258.865 191.054 257.638C189.825 256.41 189.135 254.745 189.135 253.008C189.135 251.272 189.825 249.606 191.054 248.379C192.283 247.151 193.949 246.461 195.687 246.461H245.651C247.389 246.461 249.056 247.151 250.285 248.379C251.514 249.606 252.204 251.272 252.204 253.008C252.204 254.745 251.514 256.41 250.285 257.638C249.056 258.865 247.389 259.555 245.651 259.555Z" fill="#CCCCCC"/>
<path d="M369.333 235.004H346.399C344.661 235.004 342.994 234.314 341.765 233.086C340.537 231.858 339.846 230.193 339.846 228.456C339.846 226.72 340.537 225.055 341.765 223.827C342.994 222.599 344.661 221.909 346.399 221.909H369.333C371.071 221.909 372.738 222.599 373.967 223.827C375.196 225.055 375.886 226.72 375.886 228.456C375.886 230.193 375.196 231.858 373.967 233.086C372.738 234.314 371.071 235.004 369.333 235.004Z" fill="#CCCCCC"/>
<path d="M396.363 257.1H346.399C344.661 257.1 342.994 256.41 341.765 255.183C340.537 253.955 339.846 252.289 339.846 250.553C339.846 248.817 340.537 247.151 341.765 245.923C342.994 244.696 344.661 244.006 346.399 244.006H396.363C398.101 244.006 399.768 244.696 400.996 245.923C402.225 247.151 402.916 248.817 402.916 250.553C402.916 252.289 402.225 253.955 400.996 255.183C399.768 256.41 398.101 257.1 396.363 257.1Z" fill="#CCCCCC"/>
<path d="M366.876 144.98H343.942C342.204 144.98 340.537 144.29 339.308 143.062C338.079 141.835 337.389 140.169 337.389 138.433C337.389 136.696 338.079 135.031 339.308 133.803C340.537 132.576 342.204 131.886 343.942 131.886H366.876C368.614 131.886 370.28 132.576 371.509 133.803C372.738 135.031 373.429 136.696 373.429 138.433C373.429 140.169 372.738 141.835 371.509 143.062C370.28 144.29 368.614 144.98 366.876 144.98Z" fill="#CCCCCC"/>
<path d="M393.906 167.077H343.942C342.204 167.077 340.537 166.387 339.308 165.159C338.079 163.931 337.389 162.266 337.389 160.53C337.389 158.793 338.079 157.128 339.308 155.9C340.537 154.672 342.204 153.982 343.942 153.982H393.906C395.644 153.982 397.31 154.672 398.539 155.9C399.768 157.128 400.458 158.793 400.458 160.53C400.458 162.266 399.768 163.931 398.539 165.159C397.31 166.387 395.644 167.077 393.906 167.077Z" fill="#CCCCCC"/>
<path d="M520.045 140.07H497.111C495.373 140.07 493.706 139.38 492.477 138.152C491.248 136.924 490.558 135.259 490.558 133.523C490.558 131.786 491.248 130.121 492.477 128.893C493.706 127.665 495.373 126.976 497.111 126.976H520.045C521.783 126.976 523.449 127.665 524.678 128.893C525.907 130.121 526.598 131.786 526.598 133.523C526.598 135.259 525.907 136.924 524.678 138.152C523.449 139.38 521.783 140.07 520.045 140.07Z" fill="#CCCCCC"/>
<path d="M547.075 162.167H497.111C495.373 162.167 493.706 161.477 492.477 160.249C491.248 159.021 490.558 157.356 490.558 155.619C490.558 153.883 491.248 152.218 492.477 150.99C493.706 149.762 495.373 149.072 497.111 149.072H547.075C548.813 149.072 550.479 149.762 551.708 150.99C552.937 152.218 553.627 153.883 553.627 155.619C553.627 157.356 552.937 159.021 551.708 160.249C550.479 161.477 548.813 162.167 547.075 162.167Z" fill="#CCCCCC"/>
<path d="M302.573 171.104C316.144 171.104 327.145 160.111 327.145 146.552C327.145 132.992 316.144 122 302.573 122C289.002 122 278 132.992 278 146.552C278 160.111 289.002 171.104 302.573 171.104Z" fill="#3CD0CC"/>
<path d="M314.04 157.6H291.105C290.454 157.599 289.829 157.34 289.369 156.88C288.908 156.419 288.649 155.795 288.648 155.144V137.958C288.649 137.307 288.908 136.683 289.369 136.223C289.829 135.763 290.454 135.504 291.105 135.503H297.562C297.982 135.501 298.395 135.608 298.762 135.813C299.128 136.017 299.436 136.313 299.655 136.671L301.455 139.595H314.04C314.691 139.596 315.316 139.855 315.777 140.315C316.237 140.775 316.496 141.399 316.497 142.05V155.144C316.496 155.795 316.237 156.419 315.777 156.88C315.316 157.34 314.691 157.599 314.04 157.6ZM291.105 137.14C290.888 137.14 290.68 137.226 290.527 137.38C290.373 137.533 290.287 137.741 290.286 137.958V155.144C290.287 155.361 290.373 155.569 290.527 155.723C290.68 155.876 290.888 155.963 291.105 155.963H314.04C314.257 155.963 314.465 155.876 314.619 155.723C314.772 155.569 314.859 155.361 314.859 155.144V142.05C314.859 141.833 314.772 141.625 314.619 141.472C314.465 141.318 314.257 141.232 314.04 141.232H300.54L298.26 137.529C298.187 137.41 298.084 137.311 297.962 137.243C297.84 137.175 297.702 137.139 297.562 137.14H291.105Z" fill="white"/>
<path d="M147.573 171.104C161.144 171.104 172.145 160.111 172.145 146.552C172.145 132.992 161.144 122 147.573 122C134.002 122 123 132.992 123 146.552C123 160.111 134.002 171.104 147.573 171.104Z" fill="#3CD0CC"/>
<path d="M158.221 162.101H136.925C136.273 162.1 135.648 161.841 135.188 161.381C134.727 160.921 134.468 160.297 134.467 159.646V133.457C134.468 132.806 134.727 132.182 135.188 131.722C135.648 131.262 136.273 131.003 136.925 131.002H152.356C152.915 131.002 153.458 131.193 153.895 131.543L159.76 136.252C160.047 136.482 160.279 136.773 160.438 137.104C160.597 137.436 160.679 137.799 160.678 138.166V159.646C160.677 160.297 160.418 160.921 159.957 161.381C159.497 161.841 158.872 162.1 158.221 162.101ZM136.925 132.639C136.707 132.639 136.499 132.725 136.346 132.879C136.192 133.032 136.106 133.24 136.105 133.457V159.646C136.106 159.863 136.192 160.071 136.346 160.224C136.499 160.378 136.707 160.464 136.925 160.464H158.221C158.438 160.464 158.646 160.378 158.8 160.224C158.953 160.071 159.04 159.863 159.04 159.646V138.166C159.04 138.044 159.013 137.923 158.96 137.812C158.907 137.702 158.83 137.605 158.734 137.528L152.868 132.819C152.723 132.702 152.542 132.639 152.356 132.639H136.925Z" fill="white"/>
<path d="M154.125 142.46H141.02C140.803 142.46 140.594 142.374 140.441 142.22C140.287 142.067 140.201 141.859 140.201 141.642C140.201 141.425 140.287 141.216 140.441 141.063C140.594 140.909 140.803 140.823 141.02 140.823H154.125C154.343 140.823 154.551 140.909 154.705 141.063C154.858 141.216 154.944 141.425 154.944 141.642C154.944 141.859 154.858 142.067 154.705 142.22C154.551 142.374 154.343 142.46 154.125 142.46Z" fill="white"/>
<path d="M154.125 147.37H141.02C140.803 147.37 140.594 147.284 140.441 147.13C140.287 146.977 140.201 146.769 140.201 146.552C140.201 146.335 140.287 146.127 140.441 145.973C140.594 145.82 140.803 145.733 141.02 145.733H154.125C154.343 145.733 154.551 145.82 154.705 145.973C154.858 146.127 154.944 146.335 154.944 146.552C154.944 146.769 154.858 146.977 154.705 147.13C154.551 147.284 154.343 147.37 154.125 147.37Z" fill="white"/>
<path d="M154.125 152.28H141.02C140.803 152.28 140.594 152.194 140.441 152.041C140.287 151.887 140.201 151.679 140.201 151.462C140.201 151.245 140.287 151.037 140.441 150.883C140.594 150.73 140.803 150.644 141.02 150.644H154.125C154.343 150.644 154.551 150.73 154.705 150.883C154.858 151.037 154.944 151.245 154.944 151.462C154.944 151.679 154.858 151.887 154.705 152.041C154.551 152.194 154.343 152.28 154.125 152.28Z" fill="white"/>
<path d="M453.37 169.123C466.941 169.123 477.942 158.131 477.942 144.571C477.942 131.012 466.941 120.02 453.37 120.02C439.799 120.02 428.797 131.012 428.797 144.571C428.797 158.131 439.799 169.123 453.37 169.123Z" fill="#3CD0CC"/>
<path d="M464.837 153.574H441.903C441.251 153.573 440.626 153.314 440.166 152.854C439.705 152.394 439.446 151.77 439.445 151.119V138.025C439.446 137.374 439.705 136.75 440.166 136.289C440.626 135.829 441.251 135.57 441.903 135.569H464.837C465.488 135.57 466.113 135.829 466.574 136.289C467.034 136.75 467.294 137.374 467.294 138.025V151.119C467.294 151.77 467.034 152.394 466.574 152.854C466.113 153.314 465.488 153.573 464.837 153.574ZM441.903 137.206C441.685 137.206 441.477 137.293 441.324 137.446C441.17 137.599 441.084 137.808 441.083 138.025V151.119C441.084 151.336 441.17 151.544 441.324 151.697C441.477 151.851 441.685 151.937 441.903 151.937H464.837C465.054 151.937 465.262 151.851 465.416 151.697C465.569 151.544 465.656 151.336 465.656 151.119V138.025C465.656 137.808 465.569 137.599 465.416 137.446C465.262 137.293 465.054 137.206 464.837 137.206H441.903Z" fill="white"/>
<path d="M453.37 146.73C452.909 146.731 452.458 146.602 452.067 146.36L439.83 138.718C439.646 138.603 439.516 138.419 439.467 138.208C439.419 137.997 439.456 137.775 439.571 137.591C439.686 137.407 439.869 137.276 440.081 137.227C440.292 137.178 440.514 137.215 440.699 137.33L452.936 144.971C453.066 145.052 453.217 145.095 453.37 145.095C453.523 145.095 453.674 145.052 453.804 144.971L466.041 137.33C466.225 137.215 466.447 137.178 466.658 137.227C466.87 137.276 467.053 137.407 467.168 137.591C467.283 137.775 467.321 137.997 467.272 138.208C467.224 138.419 467.093 138.603 466.909 138.718L454.673 146.36C454.282 146.602 453.83 146.731 453.37 146.73Z" fill="white"/>
<path d="M151.127 266.512C164.699 266.512 175.7 255.52 175.7 241.96C175.7 228.4 164.699 217.408 151.127 217.408C137.556 217.408 126.555 228.4 126.555 241.96C126.555 255.52 137.556 266.512 151.127 266.512Z" fill="#3CD0CC"/>
<path d="M162.595 250.963H139.66C139.009 250.962 138.384 250.703 137.924 250.243C137.463 249.782 137.204 249.158 137.203 248.507V235.413C137.204 234.762 137.463 234.138 137.924 233.678C138.384 233.218 139.009 232.959 139.66 232.958H162.595C163.246 232.959 163.871 233.218 164.332 233.678C164.792 234.138 165.051 234.762 165.052 235.413V248.507C165.051 249.158 164.792 249.782 164.332 250.243C163.871 250.703 163.246 250.962 162.595 250.963ZM139.66 234.595C139.443 234.595 139.235 234.681 139.081 234.835C138.928 234.988 138.842 235.196 138.841 235.413V248.507C138.842 248.724 138.928 248.932 139.081 249.086C139.235 249.239 139.443 249.326 139.66 249.326H162.595C162.812 249.326 163.02 249.239 163.174 249.086C163.327 248.932 163.414 248.724 163.414 248.507V235.413C163.414 235.196 163.327 234.988 163.174 234.835C163.02 234.681 162.812 234.595 162.595 234.595H139.66Z" fill="white"/>
<path d="M158.96 250.962H142.476C142.189 250.962 141.906 250.887 141.657 250.743C141.408 250.6 141.201 250.393 141.058 250.144C140.914 249.895 140.838 249.613 140.838 249.326C140.838 249.038 140.914 248.756 141.058 248.507L146.023 239.914C146.167 239.665 146.373 239.459 146.622 239.315C146.871 239.171 147.154 239.096 147.442 239.096C147.729 239.096 148.012 239.171 148.261 239.315C148.51 239.459 148.717 239.665 148.86 239.914L152.067 245.464L153.925 242.249C154.069 242 154.275 241.793 154.525 241.649C154.774 241.506 155.056 241.43 155.344 241.43C155.631 241.43 155.914 241.506 156.163 241.649C156.412 241.793 156.619 242 156.762 242.249L160.379 248.507C160.522 248.756 160.598 249.038 160.598 249.326C160.598 249.613 160.522 249.895 160.379 250.144C160.235 250.393 160.028 250.6 159.779 250.743C159.53 250.887 159.247 250.962 158.96 250.962H158.96ZM158.96 249.326L155.343 243.067L152.777 247.51C152.705 247.634 152.601 247.738 152.477 247.809C152.352 247.881 152.211 247.919 152.067 247.919C151.923 247.919 151.782 247.881 151.657 247.809C151.533 247.738 151.43 247.634 151.358 247.51L147.442 240.732L142.477 249.326H158.96Z" fill="white"/>
<path d="M160.137 239.505C161.042 239.505 161.776 238.772 161.776 237.868C161.776 236.964 161.042 236.231 160.137 236.231C159.233 236.231 158.499 236.964 158.499 237.868C158.499 238.772 159.233 239.505 160.137 239.505Z" fill="white"/>
<path d="M303.477 264.057C317.048 264.057 328.05 253.065 328.05 239.505C328.05 225.945 317.048 214.953 303.477 214.953C289.906 214.953 278.905 225.945 278.905 239.505C278.905 253.065 289.906 264.057 303.477 264.057Z" fill="#3CD0CC"/>
<path d="M303.477 239.915C302.019 239.915 300.594 239.483 299.382 238.673C298.17 237.864 297.225 236.714 296.667 235.368C296.109 234.022 295.963 232.541 296.247 231.112C296.532 229.683 297.234 228.371 298.265 227.341C299.296 226.311 300.609 225.609 302.039 225.325C303.469 225.041 304.952 225.187 306.299 225.744C307.646 226.302 308.797 227.246 309.607 228.457C310.417 229.668 310.849 231.092 310.849 232.549C310.847 234.502 310.07 236.374 308.688 237.755C307.306 239.136 305.432 239.913 303.477 239.915ZM303.477 226.82C302.343 226.82 301.235 227.156 300.292 227.786C299.349 228.415 298.614 229.31 298.18 230.357C297.746 231.404 297.633 232.556 297.854 233.667C298.075 234.778 298.621 235.799 299.423 236.6C300.225 237.401 301.247 237.947 302.359 238.168C303.471 238.389 304.624 238.275 305.672 237.842C306.719 237.408 307.615 236.674 308.245 235.732C308.875 234.79 309.211 233.682 309.211 232.549C309.209 231.03 308.605 229.574 307.53 228.5C306.455 227.426 304.998 226.822 303.477 226.82Z" fill="white"/>
<path d="M310.03 253.827H296.925C296.165 253.826 295.436 253.524 294.899 252.987C294.361 252.45 294.059 251.722 294.058 250.962C294.058 248.466 295.051 246.072 296.817 244.307C298.584 242.542 300.979 241.551 303.478 241.551C305.976 241.551 308.372 242.542 310.138 244.307C311.905 246.072 312.897 248.466 312.897 250.962C312.896 251.722 312.594 252.45 312.056 252.987C311.519 253.524 310.79 253.826 310.03 253.827ZM303.478 243.188C301.415 243.19 299.437 244.01 297.978 245.467C296.519 246.925 295.699 248.901 295.696 250.962C295.697 251.288 295.826 251.6 296.057 251.83C296.287 252.06 296.599 252.19 296.925 252.19H310.03C310.356 252.19 310.668 252.06 310.899 251.83C311.129 251.6 311.259 251.288 311.259 250.962C311.257 248.901 310.436 246.925 308.977 245.467C307.518 244.01 305.541 243.19 303.478 243.188Z" fill="white"/>
<path d="M147.9 165.513C146.935 165.27 145.931 165.251 144.959 165.457C143.986 165.664 143.069 166.091 142.271 166.709C141.473 167.327 140.815 168.12 140.342 169.033C139.869 169.946 139.593 170.957 139.533 171.993L116.31 178.824L125.786 187.412L146.386 179.608C148.057 179.598 149.666 178.946 150.908 177.776C152.151 176.607 152.94 175.002 153.126 173.264C153.313 171.527 152.884 169.778 151.921 168.35C150.957 166.921 149.527 165.912 147.9 165.513L147.9 165.513Z" fill="#FFB7B7"/>
<path d="M87.6434 366.641L94.3029 366.64L97.4712 340.452L87.6422 340.453L87.6434 366.641Z" fill="#FFB7B7"/>
<path d="M86.0042 373.188L108.119 373.187V372.904C108.119 370.592 107.212 368.374 105.598 366.739C103.984 365.104 101.794 364.186 99.5114 364.186H99.5109L86.0038 364.186L86.0042 373.188Z" fill="#2F2E41"/>
<path d="M46.6885 366.641L53.9034 366.64L57.3359 340.452L46.6878 340.453L46.6885 366.641Z" fill="#FFB7B7"/>
<path d="M45.0502 373.188L67.165 373.187V372.904C67.1649 370.592 66.2579 368.374 64.6437 366.739C63.0295 365.104 60.8402 364.186 58.5573 364.186H58.5567L45.0497 364.186L45.0502 373.188Z" fill="#2F2E41"/>
<path d="M93.0951 214.738L103.205 284.929L100.686 358.882L85.5051 360.093L80.758 293.772L68.6741 256.791L61.5697 309.507L61.2779 358.882L45.6022 360.093L40.135 256.289L44.1564 211.146L93.0951 214.738Z" fill="#2F2E41"/>
<path d="M63.479 120.304C54.6578 120.304 47.5069 113.159 47.5069 104.345C47.5069 95.5317 54.6578 88.3867 63.479 88.3867C72.3002 88.3867 79.4512 95.5317 79.4512 104.345C79.4512 113.159 72.3002 120.304 63.479 120.304Z" fill="#FFB7B7"/>
<path d="M73.4196 129.109L90.9185 218.586C90.9185 218.586 61.4569 227.169 48.5502 219.246C35.6436 211.323 41.4271 186.864 41.4271 186.864L43.7909 145.245L48.1591 134.721L51.8653 126.033L73.4196 129.109Z" fill="#9CD0CF"/>
<path d="M79.031 192.805L72.8985 127.67L77.8029 131.246L94.9505 136.808L96.124 182.666L108.119 242.969C108.119 242.969 99.5452 259.678 88.9195 232.035L79.031 192.805Z" fill="#2F2E41"/>
<path d="M86.3273 143.527L94.6386 136.672L113.319 176.892L134.164 172.366L135.149 184.568L104.947 196.415L84.3657 168.016L86.3273 143.527Z" fill="#2F2E41"/>
<path d="M54.0596 178.244L51.7444 125.215L43.2247 131.795L28.0093 136.025L30.2403 178.244L27.0298 243.753L42.9816 248.793L47.4594 207.456L54.0596 178.244Z" fill="#2F2E41"/>
<path d="M53.1238 220.865C52.9459 219.862 52.5522 218.911 51.9703 218.078C51.3885 217.245 50.6326 216.551 49.7561 216.045C48.8795 215.538 47.9035 215.232 46.8969 215.147C45.8903 215.063 44.8774 215.202 43.9298 215.554L28.3462 196.415L24.5725 208.709L39.9495 224.999C40.6426 226.566 41.8813 227.822 43.4309 228.528C44.9805 229.235 46.7333 229.344 48.3572 228.835C49.9811 228.325 51.3633 227.232 52.2418 225.763C53.1204 224.295 53.4342 222.552 53.1238 220.865V220.865Z" fill="#FFB7B7"/>
<path d="M38.3419 141.741L28.1365 135.854L2.45735 186.349L27.4936 220.967L41.7734 209.597L24.4338 187.082L40.2373 162.898L38.3419 141.741Z" fill="#2F2E41"/>
<path d="M48.273 91.5041L47.4861 89.95L51.4456 88.0196C51.4456 88.0196 55.8135 81.0457 63.7175 83.0055C71.6215 84.9653 75.1776 86.1383 75.1776 86.1383L79.127 88.0883L77.1448 90.0236L80.7009 91.1965L78.3252 92.3548L81.0894 93.9138L79.6013 101.906C79.6013 101.906 77.1299 95.8442 72.3785 98.1606C67.6272 100.477 58.9362 96.9632 58.9362 96.9632L51.3857 111.302C51.3857 111.302 49.828 106.276 47.0508 107.616C47.0507 107.616 39.9556 96.5281 48.273 91.5041Z" fill="#2F2E41"/>
<path d="M-4.29028 374.825H159.916C160.082 374.825 160.241 374.739 160.358 374.586C160.475 374.432 160.541 374.224 160.541 374.007C160.541 373.79 160.475 373.582 160.358 373.428C160.241 373.275 160.082 373.188 159.916 373.188H-4.29028C-4.45587 373.188 -4.61467 373.275 -4.73177 373.428C-4.84885 373.582 -4.91464 373.79 -4.91464 374.007C-4.91464 374.224 -4.84885 374.432 -4.73177 374.586C-4.61467 374.739 -4.45587 374.825 -4.29028 374.825Z" fill="#AAAAAA"/>
</g>
<defs>
<clipPath id="clip0">
<rect width="748" height="395" fill="white"/>
</clipPath>
</defs>
</svg>
