<svg width="100" height="100" viewBox="0 0 100 100" fill="none" xmlns="http://www.w3.org/2000/svg">
<circle cx="50" cy="50" r="50" fill="#B4B4B4"/>
<path d="M26.9043 44V29.7227H30.7617V40.8848H36.2598V44H26.9043ZM48.8867 38.4434C48.8867 40.2533 48.3984 41.666 47.4219 42.6816C46.4518 43.6908 45.0911 44.1953 43.3398 44.1953C41.6602 44.1953 40.3223 43.6777 39.3262 42.6426C38.3366 41.6074 37.8418 40.2077 37.8418 38.4434C37.8418 36.64 38.3268 35.2402 39.2969 34.2441C40.2734 33.2415 41.6406 32.7402 43.3984 32.7402C44.4857 32.7402 45.446 32.9714 46.2793 33.4336C47.1126 33.8958 47.7539 34.5599 48.2031 35.4258C48.6589 36.2852 48.8867 37.291 48.8867 38.4434ZM41.7188 38.4434C41.7188 39.3939 41.8457 40.1198 42.0996 40.6211C42.3535 41.1159 42.7799 41.3633 43.3789 41.3633C43.9714 41.3633 44.388 41.1159 44.6289 40.6211C44.8763 40.1198 45 39.3939 45 38.4434C45 37.4993 44.8763 36.7865 44.6289 36.3047C44.3815 35.8229 43.9583 35.582 43.3594 35.582C42.7734 35.582 42.3535 35.8229 42.0996 36.3047C41.8457 36.7799 41.7188 37.4928 41.7188 38.4434ZM61.5137 32.9355V34.7812L60 35.3379C60.2083 35.7155 60.3125 36.1549 60.3125 36.6562C60.3125 37.8477 59.8926 38.7721 59.0527 39.4297C58.2194 40.0872 56.9727 40.416 55.3125 40.416C54.9023 40.416 54.5768 40.39 54.3359 40.3379C54.2448 40.5072 54.1992 40.6667 54.1992 40.8164C54.1992 41.0052 54.3522 41.1517 54.6582 41.2559C54.9642 41.3535 55.3646 41.4023 55.8594 41.4023H57.6953C60.1758 41.4023 61.416 42.4473 61.416 44.5371C61.416 45.8848 60.8398 46.9329 59.6875 47.6816C58.5417 48.4303 56.9303 48.8047 54.8535 48.8047C53.2845 48.8047 52.0736 48.541 51.2207 48.0137C50.3743 47.4928 49.9512 46.7409 49.9512 45.7578C49.9512 44.4362 50.7715 43.5833 52.4121 43.1992C52.0736 43.056 51.7773 42.8249 51.5234 42.5059C51.276 42.1868 51.1523 41.8711 51.1523 41.5586C51.1523 41.2135 51.2467 40.9108 51.4355 40.6504C51.6243 40.3835 52.0182 40.0677 52.6172 39.7031C52.0443 39.4492 51.5918 39.0521 51.2598 38.5117C50.9342 37.9714 50.7715 37.3138 50.7715 36.5391C50.7715 35.3346 51.1816 34.4004 52.002 33.7363C52.8223 33.0723 53.9941 32.7402 55.5176 32.7402C55.7194 32.7402 56.0677 32.763 56.5625 32.8086C57.0573 32.8542 57.4219 32.8965 57.6562 32.9355H61.5137ZM53.1738 45.377C53.1738 45.6895 53.3431 45.9401 53.6816 46.1289C54.0202 46.3242 54.4727 46.4219 55.0391 46.4219C55.9635 46.4219 56.7025 46.3047 57.2559 46.0703C57.8158 45.8424 58.0957 45.5462 58.0957 45.1816C58.0957 44.8887 57.9264 44.6803 57.5879 44.5566C57.2493 44.4395 56.7643 44.3809 56.1328 44.3809H54.6387C54.2285 44.3809 53.8802 44.4753 53.5938 44.6641C53.3138 44.8594 53.1738 45.097 53.1738 45.377ZM54.375 36.5586C54.375 37.6914 54.7689 38.2578 55.5566 38.2578C55.9212 38.2578 56.2012 38.1178 56.3965 37.8379C56.5983 37.5579 56.6992 37.138 56.6992 36.5781C56.6992 35.4323 56.3184 34.8594 55.5566 34.8594C54.7689 34.8594 54.375 35.4258 54.375 36.5586ZM73.7695 38.4434C73.7695 40.2533 73.2812 41.666 72.3047 42.6816C71.3346 43.6908 69.974 44.1953 68.2227 44.1953C66.543 44.1953 65.2051 43.6777 64.209 42.6426C63.2194 41.6074 62.7246 40.2077 62.7246 38.4434C62.7246 36.64 63.2096 35.2402 64.1797 34.2441C65.1562 33.2415 66.5234 32.7402 68.2812 32.7402C69.3685 32.7402 70.3288 32.9714 71.1621 33.4336C71.9954 33.8958 72.6367 34.5599 73.0859 35.4258C73.5417 36.2852 73.7695 37.291 73.7695 38.4434ZM66.6016 38.4434C66.6016 39.3939 66.7285 40.1198 66.9824 40.6211C67.2363 41.1159 67.6628 41.3633 68.2617 41.3633C68.8542 41.3633 69.2708 41.1159 69.5117 40.6211C69.7591 40.1198 69.8828 39.3939 69.8828 38.4434C69.8828 37.4993 69.7591 36.7865 69.5117 36.3047C69.2643 35.8229 68.8411 35.582 68.2422 35.582C67.6562 35.582 67.2363 35.8229 66.9824 36.3047C66.7285 36.7799 66.6016 37.4928 66.6016 38.4434ZM17.8369 55.0059V61.4727C17.8369 62.2109 17.6706 62.8581 17.3379 63.4141C17.0098 63.9701 16.5335 64.3962 15.9092 64.6924C15.2848 64.9886 14.5465 65.1367 13.6943 65.1367C12.4092 65.1367 11.4111 64.8086 10.7002 64.1523C9.98926 63.4915 9.63379 62.5892 9.63379 61.4453V55.0059H11.7461V61.124C11.7461 61.8942 11.901 62.4593 12.2109 62.8193C12.5208 63.1794 13.0335 63.3594 13.749 63.3594C14.4417 63.3594 14.943 63.1794 15.2529 62.8193C15.5674 62.4548 15.7246 61.8851 15.7246 61.1104V55.0059H17.8369ZM27.1748 65H25.0898V60.5361C25.0898 59.9847 24.9919 59.5723 24.7959 59.2988C24.5999 59.0208 24.2878 58.8818 23.8594 58.8818C23.276 58.8818 22.8545 59.0778 22.5947 59.4697C22.335 59.8571 22.2051 60.502 22.2051 61.4043V65H20.1201V57.3574H21.7129L21.9932 58.335H22.1094C22.3418 57.9658 22.6608 57.6878 23.0664 57.501C23.4766 57.3096 23.9414 57.2139 24.4609 57.2139C25.3496 57.2139 26.0241 57.4554 26.4844 57.9385C26.9447 58.417 27.1748 59.1097 27.1748 60.0166V65ZM34.1748 65L33.7715 63.9609H33.7168C33.3659 64.403 33.0036 64.7106 32.6299 64.8838C32.2607 65.0524 31.7777 65.1367 31.1807 65.1367C30.4469 65.1367 29.8682 64.9271 29.4443 64.5078C29.0251 64.0885 28.8154 63.4915 28.8154 62.7168C28.8154 61.9056 29.098 61.3086 29.6631 60.9258C30.2327 60.5384 31.0895 60.3242 32.2334 60.2832L33.5596 60.2422V59.9072C33.5596 59.1325 33.1631 58.7451 32.3701 58.7451C31.7594 58.7451 31.0417 58.9297 30.2168 59.2988L29.5264 57.8906C30.4059 57.4303 31.3812 57.2002 32.4521 57.2002C33.4775 57.2002 34.2637 57.4235 34.8105 57.8701C35.3574 58.3167 35.6309 58.9958 35.6309 59.9072V65H34.1748ZM33.5596 61.459L32.7529 61.4863C32.1468 61.5046 31.6956 61.6139 31.3994 61.8145C31.1032 62.015 30.9551 62.3203 30.9551 62.7305C30.9551 63.3184 31.2923 63.6123 31.9668 63.6123C32.4499 63.6123 32.835 63.4733 33.1221 63.1953C33.4137 62.9173 33.5596 62.5482 33.5596 62.0879V61.459ZM39.6025 65L36.6904 57.3574H38.8711L40.3477 61.7119C40.5117 62.2633 40.6143 62.7852 40.6553 63.2773H40.6963C40.7191 62.8398 40.8216 62.318 41.0039 61.7119L42.4736 57.3574H44.6543L41.7422 65H39.6025ZM50.6084 65L50.2051 63.9609H50.1504C49.7995 64.403 49.4372 64.7106 49.0635 64.8838C48.6943 65.0524 48.2113 65.1367 47.6143 65.1367C46.8805 65.1367 46.3018 64.9271 45.8779 64.5078C45.4587 64.0885 45.249 63.4915 45.249 62.7168C45.249 61.9056 45.5316 61.3086 46.0967 60.9258C46.6663 60.5384 47.5231 60.3242 48.667 60.2832L49.9932 60.2422V59.9072C49.9932 59.1325 49.5967 58.7451 48.8037 58.7451C48.193 58.7451 47.4753 58.9297 46.6504 59.2988L45.96 57.8906C46.8395 57.4303 47.8148 57.2002 48.8857 57.2002C49.9111 57.2002 50.6973 57.4235 51.2441 57.8701C51.791 58.3167 52.0645 58.9958 52.0645 59.9072V65H50.6084ZM49.9932 61.459L49.1865 61.4863C48.5804 61.5046 48.1292 61.6139 47.833 61.8145C47.5368 62.015 47.3887 62.3203 47.3887 62.7305C47.3887 63.3184 47.7259 63.6123 48.4004 63.6123C48.8835 63.6123 49.2686 63.4733 49.5557 63.1953C49.8473 62.9173 49.9932 62.5482 49.9932 62.0879V61.459ZM54.1289 55.3818C54.1289 54.7028 54.5072 54.3633 55.2637 54.3633C56.0202 54.3633 56.3984 54.7028 56.3984 55.3818C56.3984 55.7054 56.3027 55.9583 56.1113 56.1406C55.9245 56.3184 55.6419 56.4072 55.2637 56.4072C54.5072 56.4072 54.1289 56.0654 54.1289 55.3818ZM56.3027 65H54.2178V57.3574H56.3027V65ZM60.582 65H58.4971V54.3633H60.582V65ZM67.6299 65L67.2266 63.9609H67.1719C66.821 64.403 66.4587 64.7106 66.085 64.8838C65.7158 65.0524 65.2327 65.1367 64.6357 65.1367C63.902 65.1367 63.3232 64.9271 62.8994 64.5078C62.4801 64.0885 62.2705 63.4915 62.2705 62.7168C62.2705 61.9056 62.5531 61.3086 63.1182 60.9258C63.6878 60.5384 64.5446 60.3242 65.6885 60.2832L67.0146 60.2422V59.9072C67.0146 59.1325 66.6182 58.7451 65.8252 58.7451C65.2145 58.7451 64.4967 58.9297 63.6719 59.2988L62.9814 57.8906C63.861 57.4303 64.8363 57.2002 65.9072 57.2002C66.9326 57.2002 67.7188 57.4235 68.2656 57.8701C68.8125 58.3167 69.0859 58.9958 69.0859 59.9072V65H67.6299ZM67.0146 61.459L66.208 61.4863C65.6019 61.5046 65.1507 61.6139 64.8545 61.8145C64.5583 62.015 64.4102 62.3203 64.4102 62.7305C64.4102 63.3184 64.7474 63.6123 65.4219 63.6123C65.9049 63.6123 66.29 63.4733 66.5771 63.1953C66.8688 62.9173 67.0146 62.5482 67.0146 62.0879V61.459ZM75.4912 57.2139C76.3936 57.2139 77.0999 57.5671 77.6104 58.2734C78.1208 58.9753 78.376 59.9391 78.376 61.165C78.376 62.4274 78.1117 63.4049 77.583 64.0977C77.0589 64.7904 76.3434 65.1367 75.4365 65.1367C74.5387 65.1367 73.8346 64.8109 73.3242 64.1592H73.1807L72.832 65H71.2393V54.3633H73.3242V56.8379C73.3242 57.1523 73.2969 57.6559 73.2422 58.3486H73.3242C73.8118 57.5921 74.5342 57.2139 75.4912 57.2139ZM74.8213 58.8818C74.3063 58.8818 73.9303 59.0413 73.6934 59.3604C73.4564 59.6748 73.3333 60.1966 73.3242 60.9258V61.1514C73.3242 61.9717 73.445 62.5596 73.6865 62.915C73.9326 63.2705 74.32 63.4482 74.8486 63.4482C75.277 63.4482 75.6165 63.2523 75.8672 62.8604C76.1224 62.4639 76.25 61.8896 76.25 61.1377C76.25 60.3857 76.1224 59.8229 75.8672 59.4492C75.612 59.071 75.2633 58.8818 74.8213 58.8818ZM82.1836 65H80.0986V54.3633H82.1836V65ZM87.543 58.6973C87.1009 58.6973 86.7546 58.8385 86.5039 59.1211C86.2533 59.3991 86.1097 59.7956 86.0732 60.3105H88.999C88.9899 59.7956 88.8555 59.3991 88.5957 59.1211C88.3359 58.8385 87.985 58.6973 87.543 58.6973ZM87.8369 65.1367C86.6064 65.1367 85.6449 64.7972 84.9521 64.1182C84.2594 63.4391 83.9131 62.4775 83.9131 61.2334C83.9131 59.9528 84.2321 58.9639 84.8701 58.2666C85.5127 57.5648 86.3991 57.2139 87.5293 57.2139C88.6094 57.2139 89.4502 57.5215 90.0518 58.1367C90.6533 58.752 90.9541 59.6019 90.9541 60.6865V61.6982H86.0254C86.0482 62.2907 86.2236 62.7533 86.5518 63.0859C86.8799 63.4186 87.3402 63.585 87.9326 63.585C88.3929 63.585 88.8281 63.5371 89.2383 63.4414C89.6484 63.3457 90.0768 63.193 90.5234 62.9834V64.5967C90.1589 64.779 89.7692 64.9134 89.3545 65C88.9398 65.0911 88.4339 65.1367 87.8369 65.1367Z" fill="white"/>
</svg>
