<svg width="23" height="23" viewBox="0 0 23 23" fill="none" xmlns="http://www.w3.org/2000/svg">
<path d="M4.90758 20.6867C5.06571 20.8561 5.33429 20.8561 5.49242 20.6867L8.77193 17.1729C9.01058 16.9172 8.82926 16.5 8.47951 16.5H6.65C6.42909 16.5 6.25 16.3209 6.25 16.1V3.4C6.25 3.17909 6.07091 3 5.85 3H4.55C4.32909 3 4.15 3.17909 4.15 3.4V16.1C4.15 16.3209 3.97091 16.5 3.75 16.5H1.92049C1.57074 16.5 1.38942 16.9172 1.62807 17.1729L4.90758 20.6867ZM10.45 7.9C10.45 7.67909 10.6291 7.5 10.85 7.5H19.5C19.7209 7.5 19.9 7.67909 19.9 7.9V9.35C19.9 9.57091 19.7209 9.75 19.5 9.75H10.85C10.6291 9.75 10.45 9.57091 10.45 9.35V7.9ZM10.45 12.4C10.45 12.1791 10.6291 12 10.85 12H17.4C17.6209 12 17.8 12.1791 17.8 12.4V13.85C17.8 14.0709 17.6209 14.25 17.4 14.25H10.85C10.6291 14.25 10.45 14.0709 10.45 13.85V12.4ZM10.45 3.4C10.45 3.17909 10.6291 3 10.85 3H21.6C21.8209 3 22 3.17909 22 3.4V4.85C22 5.07091 21.8209 5.25 21.6 5.25H10.85C10.6291 5.25 10.45 5.07091 10.45 4.85V3.4ZM10.45 16.9C10.45 16.6791 10.6291 16.5 10.85 16.5H15.3C15.5209 16.5 15.7 16.6791 15.7 16.9V18.35C15.7 18.5709 15.5209 18.75 15.3 18.75H10.85C10.6291 18.75 10.45 18.5709 10.45 18.35V16.9Z" fill="black"/>
</svg>
