<svg width="23" height="23" viewBox="0 0 23 23" fill="none" xmlns="http://www.w3.org/2000/svg">
<path d="M18.0924 2.31331C17.9343 2.14388 17.6657 2.14388 17.5076 2.31331L14.2281 5.82707C13.9894 6.08276 14.1707 6.5 14.5205 6.5L16.35 6.5C16.5709 6.5 16.75 6.67909 16.75 6.9L16.75 19.6C16.75 19.8209 16.9291 20 17.15 20L18.45 20C18.6709 20 18.85 19.8209 18.85 19.6L18.85 6.9C18.85 6.67909 19.0291 6.5 19.25 6.5L21.0795 6.5C21.4293 6.5 21.6106 6.08276 21.3719 5.82707L18.0924 2.31331ZM12.55 15.1C12.55 15.3209 12.3709 15.5 12.15 15.5L3.5 15.5C3.27909 15.5 3.1 15.3209 3.1 15.1L3.1 13.65C3.1 13.4291 3.27909 13.25 3.5 13.25L12.15 13.25C12.3709 13.25 12.55 13.4291 12.55 13.65L12.55 15.1ZM12.55 10.6C12.55 10.8209 12.3709 11 12.15 11L5.6 11C5.37909 11 5.2 10.8209 5.2 10.6L5.2 9.15C5.2 8.92909 5.37909 8.75 5.6 8.75L12.15 8.75C12.3709 8.75 12.55 8.92909 12.55 9.15L12.55 10.6ZM12.55 19.6C12.55 19.8209 12.3709 20 12.15 20L1.4 20C1.17909 20 1 19.8209 1 19.6L1 18.15C1 17.9291 1.17909 17.75 1.4 17.75L12.15 17.75C12.3709 17.75 12.55 17.9291 12.55 18.15L12.55 19.6ZM12.55 6.1C12.55 6.32091 12.3709 6.5 12.15 6.5L7.7 6.5C7.47909 6.5 7.3 6.32092 7.3 6.1L7.3 4.65C7.3 4.42909 7.47909 4.25 7.7 4.25L12.15 4.25C12.3709 4.25 12.55 4.42909 12.55 4.65L12.55 6.1Z" fill="black"/>
</svg>
