<svg width="780" height="580" viewBox="0 0 780 580" fill="none" xmlns="http://www.w3.org/2000/svg">
<g clip-path="url(#clip0)">
<path d="M703.876 19.2891H0.299805V353.148H703.876V19.2891Z" fill="#E6E6E6"/>
<path d="M683.758 47.918H20.4189V326.467H683.758V47.918Z" fill="white"/>
<path d="M703.576 0H0V29.89H703.576V0Z" fill="#3CD0CC"/>
<path d="M22.2119 23.1161C25.2715 23.1161 27.7519 20.6358 27.7519 17.5761C27.7519 14.5165 25.2715 12.0361 22.2119 12.0361C19.1522 12.0361 16.6719 14.5165 16.6719 17.5761C16.6719 20.6358 19.1522 23.1161 22.2119 23.1161Z" fill="white"/>
<path d="M43.2402 23.1161C46.2999 23.1161 48.7802 20.6358 48.7802 17.5761C48.7802 14.5165 46.2999 12.0361 43.2402 12.0361C40.1805 12.0361 37.7002 14.5165 37.7002 17.5761C37.7002 20.6358 40.1805 23.1161 43.2402 23.1161Z" fill="white"/>
<path d="M64.269 23.1161C67.3287 23.1161 69.809 20.6358 69.809 17.5761C69.809 14.5165 67.3287 12.0361 64.269 12.0361C61.2093 12.0361 58.729 14.5165 58.729 17.5761C58.729 20.6358 61.2093 23.1161 64.269 23.1161Z" fill="white"/>
<path d="M496.078 90.2676H402.655V97.2895H496.078V90.2676Z" fill="#E6E6E6"/>
<path d="M546.92 110.882H402.655V117.904H546.92V110.882Z" fill="#3CD0CC"/>
<path d="M521.728 130.514H404.155V137.536H521.728V130.514Z" fill="#E6E6E6"/>
<path d="M471.292 152.055H402.655V159.077H471.292V152.055Z" fill="#E6E6E6"/>
<path d="M506.246 173.096H402.655V180.118H506.246V173.096Z" fill="#3CD0CC"/>
<path d="M371.514 88.0586H360.074V99.4982H371.514V88.0586Z" fill="#E6E6E6"/>
<path d="M371.514 108.673H360.074V120.112H371.514V108.673Z" fill="#3CD0CC"/>
<path d="M371.514 128.305H360.074V139.744H371.514V128.305Z" fill="#E6E6E6"/>
<path d="M371.514 149.846H360.074V161.285H371.514V149.846Z" fill="#E6E6E6"/>
<path d="M371.514 170.887H360.074V182.326H371.514V170.887Z" fill="#3CD0CC"/>
<path d="M496.078 194.268H402.655V201.289H496.078V194.268Z" fill="#E6E6E6"/>
<path d="M546.92 214.882H402.655V221.904H546.92V214.882Z" fill="#3CD0CC"/>
<path d="M521.728 234.514H404.155V241.536H521.728V234.514Z" fill="#E6E6E6"/>
<path d="M471.292 256.055H402.655V263.077H471.292V256.055Z" fill="#E6E6E6"/>
<path d="M506.246 277.096H402.655V284.118H506.246V277.096Z" fill="#E6E6E6"/>
<path d="M371.514 192.059H360.074V203.498H371.514V192.059Z" fill="#E6E6E6"/>
<path d="M371.514 212.673H360.074V224.112H371.514V212.673Z" fill="#3CD0CC"/>
<path d="M371.514 232.305H360.074V243.744H371.514V232.305Z" fill="#E6E6E6"/>
<path d="M371.514 253.846H360.074V265.285H371.514V253.846Z" fill="#E6E6E6"/>
<path d="M371.514 274.887H360.074V286.326H371.514V274.887Z" fill="#E6E6E6"/>
<path d="M200.535 249.348H107.112V256.37H200.535V249.348Z" fill="#83B1B0"/>
<path d="M212.186 267.594H94.6123V274.616H212.186V267.594Z" fill="#83B1B0"/>
<path d="M214.544 160.77C214.54 171.323 211.8 181.695 206.589 190.873C201.379 200.051 193.878 207.721 184.818 213.133C175.758 218.546 165.449 221.516 154.898 221.754C144.347 221.992 133.915 219.49 124.62 214.491L124.608 214.479C115.114 209.364 107.145 201.824 101.514 192.627C95.8827 183.429 92.7904 172.903 92.552 162.121C92.3137 151.34 94.9377 140.687 100.157 131.25C105.376 121.813 113.004 113.928 122.263 108.398C131.522 102.869 142.081 99.8928 152.865 99.7733C163.648 99.6538 174.271 102.395 183.65 107.718C193.03 113.041 200.83 120.755 206.257 130.074C211.684 139.394 214.544 149.985 214.544 160.77V160.77Z" fill="#AEEBE9"/>
<path d="M153.855 157.809C163.013 157.809 170.438 150.384 170.438 141.226C170.438 132.068 163.013 124.644 153.855 124.644C144.697 124.644 137.272 132.068 137.272 141.226C137.272 150.384 144.697 157.809 153.855 157.809Z" fill="white"/>
<path d="M182.17 192.072C163.632 198.579 143.418 198.501 124.931 191.85L124.919 191.842L137.273 167.456H170.438L182.17 192.072Z" fill="white"/>
<path d="M778.32 478.944H554.32C554.055 478.944 553.8 478.839 553.613 478.651C553.425 478.464 553.32 478.21 553.32 477.944C553.32 477.679 553.425 477.425 553.613 477.237C553.8 477.05 554.055 476.944 554.32 476.944H778.32C778.585 476.944 778.839 477.05 779.027 477.237C779.215 477.425 779.32 477.679 779.32 477.944C779.32 478.21 779.215 478.464 779.027 478.651C778.839 478.839 778.585 478.944 778.32 478.944Z" fill="#CBCBCB"/>
<path d="M205.603 477H39.3967C39.0263 477 38.671 476.895 38.4091 476.707C38.1471 476.52 38 476.265 38 476C38 475.735 38.1471 475.48 38.4091 475.293C38.671 475.105 39.0263 475 39.3967 475H205.603C205.974 475 206.329 475.105 206.591 475.293C206.853 475.48 207 475.735 207 476C207 476.265 206.853 476.52 206.591 476.707C206.329 476.895 205.974 477 205.603 477Z" fill="#CBCBCB"/>
<path d="M111.908 395.848C73.8002 424.465 63 474.815 63 474.815C63 474.815 113.985 478.768 152.092 450.152C190.2 421.535 201 371.185 201 371.185C201 371.185 150.016 367.232 111.908 395.848Z" fill="#F5F5F5"/>
<path d="M760.697 451.124C773.4 460.479 777 476.939 777 476.939C777 476.939 760.005 478.232 747.303 468.876C734.6 459.521 731 443.061 731 443.061C731 443.061 747.995 441.768 760.697 451.124Z" fill="#F5F5F5"/>
<path d="M127.322 409.467C109.125 453.374 63.5518 476 63.5518 476C63.5518 476 47.4813 427.439 65.6781 383.532C83.8748 339.626 129.448 317 129.448 317C129.448 317 145.519 365.561 127.322 409.467Z" fill="#F2F2F2"/>
<path d="M754.966 455.822C761.185 470.458 776.761 478 776.761 478C776.761 478 782.253 461.813 776.034 447.177C769.815 432.542 754.239 425 754.239 425C754.239 425 748.747 441.187 754.966 455.822Z" fill="#F2F2F2"/>
<path d="M546.568 145.914C548.137 145.536 549.77 145.506 551.351 145.827C552.933 146.148 554.425 146.812 555.722 147.772C557.019 148.733 558.09 149.965 558.859 151.384C559.628 152.803 560.077 154.373 560.173 155.984L597.938 166.6L582.529 179.946L549.029 167.818C546.312 167.801 543.696 166.788 541.676 164.971C539.656 163.154 538.373 160.659 538.069 157.959C537.766 155.259 538.464 152.542 540.03 150.322C541.596 148.102 543.923 146.533 546.568 145.914L546.568 145.914Z" fill="#FFB7B7"/>
<path d="M643.611 467.47L632.603 467.469L627.366 425.011L643.613 425.012L643.611 467.47Z" fill="#FFB7B7"/>
<path d="M646.418 478.14L610.925 478.139V477.69C610.925 474.026 612.381 470.512 614.971 467.922C617.562 465.331 621.076 463.875 624.74 463.875H624.741L646.419 463.876L646.418 478.14Z" fill="#2F2E41"/>
<path d="M708.113 467.47L697.105 467.469L691.868 425.011L708.114 425.012L708.113 467.47Z" fill="#FFB7B7"/>
<path d="M710.919 478.14L675.426 478.139V477.69C675.426 474.026 676.882 470.512 679.472 467.921C682.063 465.331 685.577 463.875 689.241 463.875H689.242L710.92 463.876L710.919 478.14Z" fill="#2F2E41"/>
<path d="M634.617 223.778L618.402 336.092L622.442 454.426L646.791 456.365L654.405 350.242L673.787 291.068L685.182 375.42L685.65 454.426L710.793 456.365L719.562 290.265L713.112 218.029L634.617 223.778Z" fill="#2F2E41"/>
<path d="M681.516 73.4054C695.683 73.4054 707.167 61.9208 707.167 47.754C707.167 33.5871 695.683 22.1025 681.516 22.1025C667.349 22.1025 655.864 33.5871 655.864 47.754C655.864 61.9208 667.349 73.4054 681.516 73.4054Z" fill="#FFB7B7"/>
<path d="M665.704 87.3575L637.386 230.023C637.386 230.023 685.064 243.707 705.951 231.074C726.838 218.442 717.478 179.444 717.478 179.444L713.653 113.086L706.584 96.3052L700.586 82.4531L665.704 87.3575Z" fill="#83B1B0"/>
<path d="M657.415 188.625L667.198 84.5879L659.374 90.2996L632.02 99.1833L630.148 172.429L611.014 268.749C611.014 268.749 624.691 295.437 641.641 251.285L657.415 188.625Z" fill="#2F2E41"/>
<path d="M645.184 110.138L632.02 99.1826L602.433 163.455L569.417 156.223L567.857 175.722L615.693 194.653L648.291 149.271L645.184 110.138Z" fill="#2F2E41"/>
<path d="M696.397 165.853L700.084 81.1807L713.652 91.6877L737.883 98.4417L734.331 165.853L739.443 270.453L714.039 278.499L706.909 212.496L696.397 165.853Z" fill="#2F2E41"/>
<path d="M698.028 234.012C698.312 232.424 698.941 230.917 699.871 229.598C700.801 228.278 702.008 227.179 703.409 226.377C704.809 225.575 706.368 225.09 707.976 224.956C709.585 224.821 711.203 225.042 712.717 225.6L737.613 195.285L743.642 214.758L719.076 240.561C717.968 243.042 715.989 245.031 713.514 246.15C711.038 247.27 708.238 247.442 705.643 246.635C703.049 245.828 700.841 244.097 699.437 241.771C698.034 239.444 697.532 236.684 698.028 234.012V234.012Z" fill="#FFB7B7"/>
<path d="M721.661 107.84L737.884 98.4414L778.705 179.053L738.906 234.318L716.206 216.168L743.77 180.223L718.648 141.615L721.661 107.84Z" fill="#2F2E41"/>
<path d="M705.641 27.2465L706.885 24.7435L700.627 21.6347C700.627 21.6347 693.725 10.403 681.234 13.5593C668.743 16.7157 663.123 18.6047 663.123 18.6047L656.881 21.7452L660.014 24.862L654.394 26.751L658.149 28.6164L653.78 31.1272L656.132 43.9985C656.132 43.9985 660.038 34.2361 667.546 37.9668C675.055 41.6975 688.79 36.0383 688.79 36.0383L700.722 59.1311C700.722 59.1311 703.184 51.0359 707.573 53.1945C707.573 53.1945 718.785 35.3375 705.641 27.2465Z" fill="#2F2E41"/>
</g>
<defs>
<clipPath id="clip0">
<rect width="779.32" height="579.944" fill="white"/>
</clipPath>
</defs>
</svg>
